<svg width="138" height="34" viewBox="0 0 138 34" fill="none" xmlns="http://www.w3.org/2000/svg">
<path fill-rule="evenodd" clip-rule="evenodd" d="M0 7.17808C0 3.23498 3.19651 0.0384678 7.13962 0.0384678H25.4986C29.4417 0.0384678 32.6382 3.23498 32.6382 7.17808V11.8558L30.5984 14.9156V7.17808C30.5984 4.36158 28.3151 2.07836 25.4986 2.07836H7.13962C4.32311 2.07836 2.03989 4.36158 2.03989 7.17808V25.5371C2.03989 28.3536 4.32311 30.6368 7.13961 30.6368H19.379L22.4388 32.6767H7.13961C3.19651 32.6767 0 29.4802 0 25.5371V7.17808Z" fill="#335976"/>
<path d="M41.6419 6.79121L32.6382 19.1723L27.011 28.176L24.3529 32.7707L21.3837 28.7387L17.4446 23.674L12.38 16.9202L23.6346 25.3623L30.9501 18.0468L41.6419 6.79121Z" fill="#00DC00"/>
<path d="M78.9754 10.7325C78.9754 11.5898 78.7644 12.3284 78.3423 12.9482C77.9269 13.5681 77.3268 14.0429 76.542 14.3727C75.7639 14.7024 74.8341 14.8672 73.7526 14.8672C73.225 14.8672 72.7205 14.8376 72.2391 14.7782C71.7578 14.7189 71.3027 14.6331 70.8741 14.521C70.452 14.4023 70.0663 14.2605 69.7168 14.0957V11.8602C70.3037 12.1173 70.9598 12.3514 71.6852 12.5625C72.4106 12.7669 73.1492 12.8691 73.901 12.8691C74.5142 12.8691 75.022 12.79 75.4243 12.6317C75.8331 12.4668 76.1365 12.236 76.3343 11.9393C76.5321 11.6359 76.6311 11.2831 76.6311 10.8809C76.6311 10.4522 76.5157 10.0895 76.2849 9.79279C76.054 9.49604 75.7045 9.22567 75.2363 8.98167C74.7747 8.73108 74.1944 8.464 73.4954 8.18044C73.0206 7.9892 72.5656 7.77159 72.1303 7.52759C71.7017 7.28359 71.3192 6.99674 70.9829 6.66701C70.6466 6.33729 70.3795 5.94821 70.1817 5.49979C69.9904 5.04477 69.8948 4.51062 69.8948 3.89733C69.8948 3.07962 70.0893 2.3806 70.4784 1.80029C70.8741 1.21998 71.428 0.77485 72.1402 0.46491C72.859 0.15497 73.6965 0 74.6527 0C75.4111 0 76.1233 0.0791337 76.7893 0.237401C77.462 0.395668 78.1214 0.61988 78.7677 0.910037L78.0159 2.81914C77.4224 2.57514 76.8454 2.3806 76.2849 2.23553C75.7309 2.09045 75.1638 2.01791 74.5835 2.01791C74.0823 2.01791 73.657 2.09374 73.3074 2.24542C72.9579 2.39709 72.6909 2.61141 72.5062 2.88838C72.3282 3.15875 72.2391 3.48188 72.2391 3.85777C72.2391 4.27981 72.3414 4.63591 72.5458 4.92607C72.7568 5.20963 73.0799 5.47011 73.5152 5.70752C73.957 5.94492 74.5241 6.2087 75.2165 6.49885C76.0145 6.82858 76.6904 7.17479 77.2443 7.53748C77.8049 7.90018 78.2335 8.33541 78.5303 8.84319C78.827 9.34437 78.9754 9.97414 78.9754 10.7325Z" fill="#335976"/>
<path d="M57.273 0.207726H61.5759C63.4421 0.207726 64.85 0.478099 65.7996 1.01885C66.7492 1.55959 67.224 2.49271 67.224 3.8182C67.224 4.37214 67.1251 4.87331 66.9273 5.32174C66.7361 5.76357 66.4558 6.12956 66.0865 6.41972C65.7172 6.70328 65.2622 6.89452 64.7214 6.99344V7.09235C65.282 7.19127 65.7799 7.36603 66.2151 7.61662C66.6569 7.86721 67.0031 8.2266 67.2537 8.69481C67.5109 9.16302 67.6395 9.76971 67.6395 10.5149C67.6395 11.3985 67.4285 12.1503 67.0064 12.7702C66.591 13.3901 65.9942 13.8616 65.216 14.1847C64.4445 14.5078 63.5278 14.6694 62.4661 14.6694H57.273V0.207726ZM59.647 6.17243H61.9221C62.997 6.17243 63.7422 5.99767 64.1576 5.64817C64.5731 5.29866 64.7808 4.78759 64.7808 4.11495C64.7808 3.42913 64.5335 2.93454 64.0389 2.63119C63.5509 2.32785 62.7728 2.17618 61.7045 2.17618H59.647V6.17243ZM59.647 8.09142V12.6812H62.1496C63.2575 12.6812 64.0356 12.4668 64.484 12.0382C64.9325 11.6096 65.1567 11.0293 65.1567 10.2973C65.1567 9.84884 65.0545 9.45977 64.85 9.13005C64.6522 8.80032 64.3258 8.54644 63.8708 8.36839C63.4157 8.18374 62.8025 8.09142 62.0309 8.09142H59.647Z" fill="#335976"/>
<path d="M54.1571 7.30008C54.1571 8.92892 53.8538 10.2907 53.2471 11.3854C52.6404 12.4734 51.76 13.2945 50.606 13.8484C49.4519 14.3957 48.0605 14.6694 46.4317 14.6694H42.4156V0.207726H46.8669C48.3639 0.207726 49.6564 0.478099 50.7445 1.01885C51.8326 1.553 52.6733 2.34763 53.2668 3.40275C53.8604 4.45127 54.1571 5.75038 54.1571 7.30008ZM51.6842 7.36932C51.6842 6.18232 51.4962 5.20634 51.1203 4.44138C50.7511 3.67642 50.2037 3.10929 49.4783 2.74C48.7595 2.36412 47.8726 2.17618 46.8175 2.17618H44.7897V12.6812H46.4712C48.2188 12.6812 49.5245 12.236 50.3884 11.3458C51.2522 10.4555 51.6842 9.13005 51.6842 7.36932Z" fill="#335976"/>
<path d="M136.717 26.4328C136.717 28.0617 136.414 29.4234 135.807 30.5181C135.201 31.6062 134.32 32.4272 133.166 32.9812C132.012 33.5285 130.621 33.8022 128.992 33.8022H124.976V19.3405H129.427C130.924 19.3405 132.217 19.6109 133.305 20.1516C134.393 20.6858 135.234 21.4804 135.827 22.5355C136.421 23.584 136.717 24.8831 136.717 26.4328ZM134.244 26.5021C134.244 25.3151 134.056 24.3391 133.68 23.5741C133.311 22.8092 132.764 22.2421 132.038 21.8728C131.32 21.4969 130.433 21.3089 129.378 21.3089H127.35V31.8139H129.031C130.779 31.8139 132.085 31.3688 132.949 30.4786C133.812 29.5883 134.244 28.2628 134.244 26.5021Z" fill="#335976"/>
<path d="M120.837 33.8022H112.647V19.3405H120.837V21.3386H115.021V25.2656H120.471V27.2539H115.021V31.7941H120.837V33.8022Z" fill="#335976"/>
<path d="M109.725 33.8022H106.995L102.494 27.2341L101.07 28.3914V33.8022H98.6955V19.3405H101.07V26.2548C101.36 25.8987 101.653 25.5426 101.95 25.1865C102.247 24.8304 102.543 24.4743 102.84 24.1182L106.916 19.3405H109.596L104.195 25.6712L109.725 33.8022Z" fill="#335976"/>
<path d="M91.0057 21.1507C90.3133 21.1507 89.6934 21.276 89.146 21.5266C88.6053 21.7771 88.147 22.1398 87.7711 22.6146C87.3952 23.0829 87.1084 23.6533 86.9105 24.3259C86.7127 24.992 86.6138 25.7437 86.6138 26.5812C86.6138 27.7023 86.772 28.6684 87.0886 29.4795C87.4051 30.284 87.8865 30.9039 88.5328 31.3391C89.179 31.7678 89.9967 31.9821 90.9859 31.9821C91.5992 31.9821 92.196 31.9227 92.7763 31.804C93.3566 31.6853 93.9567 31.5238 94.5766 31.3193V33.3373C93.9897 33.5681 93.3962 33.7362 92.7961 33.8417C92.196 33.9472 91.5036 34 90.7188 34C89.2417 34 88.0151 33.6934 87.0391 33.0801C86.0697 32.4668 85.3443 31.6029 84.8629 30.4884C84.3881 29.374 84.1507 28.0683 84.1507 26.5713C84.1507 25.4766 84.3024 24.4743 84.6058 23.5642C84.9091 22.6542 85.3509 21.8695 85.9312 21.21C86.5116 20.544 87.2271 20.0329 88.0777 19.6768C88.935 19.3141 89.9143 19.1328 91.0156 19.1328C91.741 19.1328 92.4532 19.2152 93.1522 19.3801C93.8578 19.5383 94.5107 19.7658 95.1107 20.0626L94.2798 22.0211C93.7787 21.7837 93.2544 21.5793 92.7071 21.4079C92.1597 21.2364 91.5926 21.1507 91.0057 21.1507Z" fill="#335976"/>
<path d="M80.7045 33.8022H72.5141V19.3405H80.7045V21.3386H74.8881V25.2656H80.3385V27.2539H74.8881V31.7941H80.7045V33.8022Z" fill="#335976"/>
<path d="M67.6731 33.8022H65.309V27.2736H58.642V33.8022H56.268V19.3405H58.642V25.2557H65.309V19.3405H67.6731V33.8022Z" fill="#335976"/>
<path d="M48.5782 21.1507C47.8858 21.1507 47.2659 21.276 46.7185 21.5266C46.1778 21.7771 45.7195 22.1398 45.3436 22.6146C44.9677 23.0829 44.6808 23.6533 44.483 24.3259C44.2852 24.992 44.1863 25.7437 44.1863 26.5812C44.1863 27.7023 44.3445 28.6684 44.6611 29.4795C44.9776 30.284 45.459 30.9039 46.1053 31.3391C46.7515 31.7678 47.5692 31.9821 48.5584 31.9821C49.1717 31.9821 49.7685 31.9227 50.3488 31.804C50.9291 31.6853 51.5292 31.5238 52.1491 31.3193V33.3373C51.5622 33.5681 50.9687 33.7362 50.3686 33.8417C49.7685 33.9472 49.0761 34 48.2913 34C46.8142 34 45.5876 33.6934 44.6116 33.0801C43.6422 32.4668 42.9168 31.6029 42.4354 30.4884C41.9606 29.374 41.7232 28.0683 41.7232 26.5713C41.7232 25.4766 41.8749 24.4743 42.1782 23.5642C42.4816 22.6542 42.9234 21.8695 43.5037 21.21C44.084 20.544 44.7995 20.0329 45.6502 19.6768C46.5075 19.3141 47.4868 19.1328 48.5881 19.1328C49.3135 19.1328 50.0257 19.2152 50.7247 19.3801C51.4303 19.5383 52.0831 19.7658 52.6832 20.0626L51.8523 22.0211C51.3512 21.7837 50.8269 21.5793 50.2796 21.4079C49.7322 21.2364 49.1651 21.1507 48.5782 21.1507Z" fill="#335976"/>
<path d="M137.04 11.3821C137.04 11.8078 136.999 12.2232 136.917 12.6284C136.835 13.0336 136.708 13.4183 136.536 13.7824C136.367 14.1466 136.149 14.4826 135.882 14.7903H135.105C135.346 14.4646 135.549 14.1158 135.713 13.744C135.877 13.3721 136 12.9862 136.082 12.5861C136.164 12.186 136.206 11.7821 136.206 11.3744C136.206 10.9589 136.163 10.5486 136.079 10.1434C135.997 9.7382 135.873 9.3484 135.709 8.97398C135.545 8.59699 135.341 8.24566 135.098 7.91996H135.882C136.149 8.2354 136.367 8.57904 136.536 8.9509C136.708 9.32275 136.835 9.71384 136.917 10.1242C136.999 10.5319 137.04 10.9512 137.04 11.3821Z" fill="#335976"/>
<path d="M130.405 7.91996H132.078C132.804 7.91996 133.351 8.02511 133.721 8.2354C134.09 8.44569 134.274 8.80857 134.274 9.32403C134.274 9.53945 134.236 9.73436 134.159 9.90874C134.085 10.0806 133.976 10.2229 133.832 10.3357C133.688 10.446 133.512 10.5204 133.301 10.5588V10.5973C133.519 10.6358 133.713 10.7037 133.882 10.8012C134.054 10.8986 134.189 11.0384 134.286 11.2205C134.386 11.4026 134.436 11.6385 134.436 11.9283C134.436 12.2719 134.354 12.5643 134.19 12.8054C134.028 13.0464 133.796 13.2298 133.494 13.3555C133.193 13.4811 132.837 13.5439 132.424 13.5439H130.405V7.91996ZM131.328 10.2396H132.213C132.631 10.2396 132.92 10.1716 133.082 10.0357C133.243 9.89977 133.324 9.70102 133.324 9.43944C133.324 9.17273 133.228 8.98039 133.036 8.86242C132.846 8.74445 132.543 8.68547 132.128 8.68547H131.328V10.2396ZM131.328 10.9858V12.7707H132.301C132.732 12.7707 133.035 12.6874 133.209 12.5207C133.383 12.354 133.47 12.1283 133.47 11.8437C133.47 11.6693 133.431 11.518 133.351 11.3898C133.274 11.2615 133.147 11.1628 132.97 11.0936C132.793 11.0217 132.555 10.9858 132.255 10.9858H131.328Z" fill="#335976"/>
<path d="M126.954 7.91996C127.439 7.91996 127.839 7.97894 128.154 8.09691C128.472 8.21488 128.708 8.3944 128.862 8.63546C129.018 8.87653 129.097 9.18299 129.097 9.55484C129.097 9.83181 129.045 10.0677 128.943 10.2626C128.84 10.4576 128.706 10.6191 128.539 10.7473C128.372 10.8756 128.194 10.9781 128.004 11.0551L129.601 13.5439H128.558L127.2 11.2897H126.296V13.5439H125.373V7.91996H126.954ZM126.892 8.68932H126.296V10.5281H126.935C127.363 10.5281 127.673 10.4486 127.866 10.2896C128.061 10.1306 128.158 9.89592 128.158 9.58562C128.158 9.25992 128.054 9.02911 127.846 8.8932C127.641 8.75728 127.323 8.68932 126.892 8.68932Z" fill="#335976"/>
<path d="M122.776 8.62392C122.507 8.62392 122.266 8.67265 122.053 8.7701C121.843 8.86755 121.665 9.0086 121.519 9.19324C121.372 9.37532 121.261 9.59715 121.184 9.85874C121.107 10.1178 121.068 10.4101 121.068 10.7358C121.068 11.1718 121.13 11.5475 121.253 11.8629C121.376 12.1758 121.563 12.4168 121.815 12.5861C122.066 12.7528 122.384 12.8361 122.769 12.8361C123.007 12.8361 123.239 12.8131 123.465 12.7669C123.691 12.7207 123.924 12.6579 124.165 12.5784V13.3631C123.937 13.4529 123.706 13.5183 123.473 13.5593C123.239 13.6004 122.97 13.6209 122.665 13.6209C122.09 13.6209 121.613 13.5016 121.234 13.2631C120.857 13.0246 120.575 12.6887 120.388 12.2553C120.203 11.8219 120.111 11.3141 120.111 10.732C120.111 10.3062 120.17 9.91644 120.288 9.56253C120.406 9.20863 120.577 8.90345 120.803 8.647C121.029 8.38799 121.307 8.18924 121.638 8.05075C121.971 7.9097 122.352 7.83918 122.78 7.83918C123.062 7.83918 123.339 7.87124 123.611 7.93535C123.886 7.9969 124.139 8.08537 124.373 8.20078L124.05 8.96244C123.855 8.87011 123.651 8.79061 123.438 8.72394C123.225 8.65726 123.005 8.62392 122.776 8.62392Z" fill="#335976"/>
<path d="M113.383 9.28557H114.367L115.241 11.7167C115.279 11.827 115.314 11.936 115.344 12.0437C115.378 12.1488 115.406 12.2527 115.429 12.3553C115.455 12.4579 115.475 12.5605 115.491 12.663H115.514C115.539 12.5297 115.575 12.3809 115.621 12.2168C115.67 12.0501 115.724 11.8834 115.783 11.7167L116.622 9.28557H117.595L115.768 14.1287C115.662 14.4056 115.533 14.6416 115.379 14.8365C115.228 15.0339 115.048 15.1827 114.841 15.2827C114.633 15.3853 114.396 15.4366 114.129 15.4366C114.001 15.4366 113.889 15.4289 113.794 15.4135C113.699 15.4007 113.619 15.3866 113.552 15.3712V14.648C113.606 14.6608 113.674 14.6723 113.756 14.6826C113.838 14.6929 113.922 14.698 114.01 14.698C114.171 14.698 114.311 14.6659 114.429 14.6018C114.547 14.5377 114.647 14.4467 114.729 14.3287C114.811 14.2133 114.879 14.0812 114.933 13.9325L115.083 13.5324L113.383 9.28557Z" fill="#335976"/>
<path d="M112.732 13.5439H111.825V7.55836H112.732V13.5439Z" fill="#335976"/>
<path d="M110.582 9.20478C110.654 9.20478 110.732 9.20863 110.817 9.21632C110.901 9.22402 110.975 9.23428 111.036 9.2471L110.951 10.0934C110.898 10.078 110.831 10.0665 110.751 10.0588C110.674 10.0511 110.605 10.0472 110.544 10.0472C110.382 10.0472 110.228 10.0742 110.082 10.128C109.936 10.1793 109.806 10.2588 109.694 10.3665C109.581 10.4717 109.492 10.6037 109.428 10.7627C109.364 10.9217 109.332 11.1064 109.332 11.3167V13.5439H108.424V9.28557H109.132L109.255 10.0357H109.297C109.382 9.88438 109.487 9.7459 109.613 9.62024C109.738 9.49457 109.882 9.39456 110.044 9.32019C110.208 9.24325 110.387 9.20478 110.582 9.20478Z" fill="#335976"/>
<path d="M105.581 9.20478C105.961 9.20478 106.287 9.283 106.558 9.43944C106.83 9.59587 107.039 9.8177 107.185 10.1049C107.332 10.3922 107.405 10.7358 107.405 11.1359V11.6206H104.562C104.572 12.0334 104.682 12.3514 104.893 12.5746C105.106 12.7977 105.403 12.9092 105.785 12.9092C106.057 12.9092 106.301 12.8836 106.516 12.8323C106.734 12.7784 106.958 12.7002 107.189 12.5976V13.3324C106.976 13.4324 106.76 13.5055 106.539 13.5516C106.319 13.5978 106.054 13.6209 105.747 13.6209C105.329 13.6209 104.961 13.5401 104.643 13.3785C104.327 13.2144 104.08 12.9708 103.9 12.6476C103.723 12.3245 103.635 11.9232 103.635 11.4436C103.635 10.9666 103.716 10.5614 103.877 10.228C104.039 9.89464 104.266 9.64075 104.558 9.46636C104.85 9.29198 105.192 9.20478 105.581 9.20478ZM105.581 9.88566C105.297 9.88566 105.066 9.97799 104.889 10.1626C104.715 10.3473 104.612 10.6178 104.581 10.9743H106.52C106.517 10.7614 106.481 10.573 106.412 10.4088C106.346 10.2447 106.243 10.1165 106.105 10.0241C105.969 9.93182 105.794 9.88566 105.581 9.88566Z" fill="#335976"/>
<path d="M101.181 9.20478C101.658 9.20478 102.017 9.32788 102.258 9.57407C102.501 9.82027 102.623 10.2152 102.623 10.7589V13.5439H101.719V10.9204C101.719 10.5973 101.656 10.3537 101.531 10.1896C101.405 10.0254 101.214 9.94337 100.958 9.94337C100.598 9.94337 100.339 10.0588 100.18 10.2896C100.024 10.5178 99.9458 10.8499 99.9458 11.2859V13.5439H99.0418V10.9204C99.0418 10.705 99.0136 10.5255 98.9572 10.3819C98.9033 10.2357 98.82 10.1267 98.7072 10.0549C98.5943 9.98055 98.452 9.94337 98.2802 9.94337C98.0314 9.94337 97.8327 9.99978 97.6839 10.1126C97.5377 10.2255 97.4326 10.3922 97.3685 10.6127C97.3044 10.8307 97.2723 11.0987 97.2723 11.4167V13.5439H96.3683V9.28557H97.0723L97.1992 9.85874H97.2492C97.3364 9.70999 97.4441 9.58818 97.5724 9.49329C97.7031 9.39584 97.848 9.32403 98.007 9.27787C98.166 9.22915 98.3315 9.20478 98.5033 9.20478C98.8213 9.20478 99.0893 9.2612 99.3073 9.37404C99.5252 9.48432 99.6881 9.65357 99.7958 9.88182H99.865C99.9984 9.65101 100.184 9.48047 100.423 9.3702C100.661 9.25992 100.914 9.20478 101.181 9.20478Z" fill="#335976"/>
<path d="M95.1258 9.20478C95.1976 9.20478 95.2758 9.20863 95.3605 9.21632C95.4451 9.22402 95.5182 9.23428 95.5797 9.2471L95.4951 10.0934C95.4412 10.078 95.3746 10.0665 95.2951 10.0588C95.2181 10.0511 95.1489 10.0472 95.0873 10.0472C94.9258 10.0472 94.7719 10.0742 94.6257 10.128C94.4796 10.1793 94.35 10.2588 94.2372 10.3665C94.1244 10.4717 94.0359 10.6037 93.9718 10.7627C93.9077 10.9217 93.8756 11.1064 93.8756 11.3167V13.5439H92.9678V9.28557H93.6756L93.7987 10.0357H93.841C93.9256 9.88438 94.0308 9.7459 94.1564 9.62024C94.2821 9.49457 94.4257 9.39456 94.5873 9.32019C94.7514 9.24325 94.9309 9.20478 95.1258 9.20478Z" fill="#335976"/>
<path d="M91.9291 11.4051C91.9291 11.759 91.883 12.0732 91.7907 12.3476C91.6983 12.622 91.5637 12.8541 91.3867 13.0439C91.2098 13.2311 90.9969 13.3747 90.7482 13.4747C90.4994 13.5722 90.2186 13.6209 89.9057 13.6209C89.6134 13.6209 89.3454 13.5722 89.1018 13.4747C88.8581 13.3747 88.6466 13.2311 88.467 13.0439C88.2901 12.8541 88.1529 12.622 88.0554 12.3476C87.958 12.0732 87.9093 11.759 87.9093 11.4051C87.9093 10.9358 87.99 10.5383 88.1516 10.2126C88.3157 9.88438 88.5491 9.63434 88.8517 9.46252C89.1543 9.2907 89.5146 9.20478 89.9327 9.20478C90.325 9.20478 90.6712 9.2907 90.9713 9.46252C91.2713 9.63434 91.506 9.88438 91.6753 10.2126C91.8445 10.5409 91.9291 10.9384 91.9291 11.4051ZM88.8402 11.4051C88.8402 11.7154 88.8774 11.9809 88.9517 12.2014C89.0287 12.422 89.1466 12.5912 89.3056 12.7092C89.4646 12.8246 89.6698 12.8823 89.9211 12.8823C90.1724 12.8823 90.3776 12.8246 90.5366 12.7092C90.6956 12.5912 90.8123 12.422 90.8867 12.2014C90.961 11.9809 90.9982 11.7154 90.9982 11.4051C90.9982 11.0948 90.961 10.832 90.8867 10.6166C90.8123 10.3986 90.6956 10.2332 90.5366 10.1203C90.3776 10.0049 90.1712 9.94721 89.9173 9.94721C89.5429 9.94721 89.2697 10.0729 89.0979 10.3242C88.9261 10.5755 88.8402 10.9358 88.8402 11.4051Z" fill="#335976"/>
<path d="M87.4323 9.97414H86.3975V13.5439H85.4935V9.97414H84.7972V9.53945L85.4935 9.27403V8.97782C85.4935 8.61623 85.5499 8.329 85.6627 8.11615C85.7781 7.90329 85.9423 7.7507 86.1551 7.65838C86.3706 7.56349 86.627 7.51605 86.9245 7.51605C87.1194 7.51605 87.2976 7.53272 87.4592 7.56606C87.6208 7.59683 87.7567 7.63274 87.8669 7.67377L87.6323 8.35849C87.5451 8.33028 87.4476 8.30464 87.3399 8.28156C87.2322 8.25591 87.1168 8.24309 86.9937 8.24309C86.7886 8.24309 86.6373 8.3072 86.5398 8.43543C86.4449 8.56365 86.3975 8.75086 86.3975 8.99706V9.28557H87.4323V9.97414Z" fill="#335976"/>
<path d="M82.4738 11.3859C82.4738 10.9551 82.5148 10.5345 82.5969 10.1242C82.6815 9.71384 82.8097 9.32275 82.9815 8.9509C83.1534 8.57904 83.3701 8.2354 83.6316 7.91996H84.4202C84.0535 8.40978 83.7765 8.95218 83.5893 9.54715C83.4047 10.1421 83.3124 10.7525 83.3124 11.3782C83.3124 11.786 83.3534 12.1899 83.4355 12.5899C83.5175 12.99 83.6406 13.3747 83.8047 13.744C83.9689 14.1158 84.1715 14.4646 84.4125 14.7903H83.6316C83.3701 14.4826 83.1534 14.1466 82.9815 13.7824C82.8097 13.4183 82.6815 13.0336 82.5969 12.6284C82.5148 12.2232 82.4738 11.8091 82.4738 11.3859Z" fill="#335976"/>
</svg>
