<svg width="168" height="45" viewBox="0 0 168 45" fill="none" xmlns="http://www.w3.org/2000/svg">
<g clip-path="url(#clip0_11_718)">
<path d="M30.4746 28.1568H33.0172V24.2325H35.3055C37.8819 24.2325 39.5939 22.713 39.5939 20.3585C39.5939 17.9872 37.8819 16.4676 35.3055 16.4676H30.4746V28.1568ZM35.0681 18.5549C36.2547 18.5549 37.0174 19.2396 37.0174 20.3585C37.0174 21.4606 36.2547 22.1452 35.0681 22.1452H33.0172V18.5549H35.0681ZM40.8324 28.1568H43.2225V16.4676H40.8324V28.1568ZM53.1937 26.1697C52.8208 26.1697 52.6344 26.0862 52.6344 25.6353V22.5961C52.6344 20.5421 51.2275 19.4734 48.7866 19.4734C46.4814 19.4734 44.922 20.5755 44.7524 22.2454H47.0576C47.1594 21.6108 47.7865 21.1934 48.7188 21.1934C49.7189 21.1934 50.2783 21.6944 50.2783 22.4625V22.88H48.5493C45.9389 22.88 44.549 23.9154 44.549 25.7355C44.549 27.372 45.9051 28.257 47.7865 28.257C49.1426 28.257 50.024 27.7059 50.6342 26.7542C50.6172 27.5723 51.0072 28.1568 52.2445 28.1568H53.4649V26.1697H53.1937ZM50.2783 24.6167C50.2613 25.7855 49.4985 26.5537 48.2442 26.5537C47.4476 26.5537 46.956 26.1697 46.956 25.5685C46.956 24.8504 47.5323 24.4497 48.5324 24.4497H50.2783V24.6167ZM55.0167 25.7021C55.0167 27.3385 55.8473 28.1568 57.5085 28.1568H59.4577V26.1697H58.2712C57.6441 26.1697 57.4067 25.9191 57.4067 25.318V21.5608H59.4069V19.5735H57.4067V17.1689H55.0167V19.5735H53.5759V21.5608H55.0167V25.7021ZM61.7674 18.6551C62.5471 18.6551 63.1573 18.0874 63.1573 17.336C63.1573 16.5678 62.5471 16 61.7674 16C60.9876 16 60.3774 16.5678 60.3774 17.336C60.3774 18.0874 60.9876 18.6551 61.7674 18.6551ZM60.5639 28.1568H62.9708V19.5735H60.5639V28.1568ZM69.6198 19.4734C68.2808 19.4734 67.484 19.9743 66.9247 20.6423L66.7043 19.5735H64.6194V28.1568H67.0095V23.765C67.0095 22.2788 67.7214 21.4105 68.9587 21.4105C70.1622 21.4105 70.7215 22.1787 70.7215 23.6314V28.1568H73.1115V23.3976C73.1115 20.4586 71.5013 19.4734 69.6198 19.4734ZM80.4316 23.8652C80.4316 25.4516 79.7366 26.3033 78.55 26.3033C77.3635 26.3033 76.855 25.5518 76.855 24.0155V19.5735H74.465V24.3328C74.465 27.372 76.1261 28.257 77.9228 28.257C79.1603 28.257 79.923 27.7894 80.4824 27.1215L80.7028 28.1568H82.8216V19.5735H80.4316V23.8652ZM94.9077 19.4734C93.5856 19.4734 92.5686 20.0078 91.9584 20.9262C91.416 19.8407 90.4159 19.4567 89.348 19.4734C88.0768 19.4901 87.314 19.9743 86.7885 20.6423L86.5681 19.5735H84.4832V28.1568H86.8732V23.4811C86.8732 22.1953 87.5512 21.4105 88.5852 21.4105C89.6362 21.4105 90.1108 22.0784 90.1108 23.3642V28.1568H92.5009V23.4645C92.5009 22.1619 93.1958 21.4105 94.2303 21.4105C95.2643 21.4105 95.7385 22.0784 95.7385 23.3642V28.1568H98.1285V23.2306C98.1285 20.4753 96.7047 19.4734 94.9077 19.4734ZM103.342 18.6218H106.766V28.1568H109.308V18.6218H112.75V16.4676H103.342V18.6218ZM118.069 19.5735C116.713 19.5735 116.034 20.0913 115.56 20.8594L115.34 19.5735H113.17V28.1568H115.56V23.9487C115.56 22.6462 116.102 21.711 117.527 21.711H118.475V19.5735H118.069ZM125.356 23.8652C125.356 25.4516 124.662 26.3033 123.475 26.3033C122.289 26.3033 121.78 25.5518 121.78 24.0155V19.5735H119.39V24.3328C119.39 27.372 121.052 28.257 122.849 28.257C124.086 28.257 124.849 27.7894 125.407 27.1215L125.629 28.1568H127.746V19.5735H125.356V23.8652ZM129.001 25.3013C129.104 27.1382 130.747 28.257 133.172 28.257C135.511 28.257 137.138 27.1716 137.138 25.4684C137.138 23.5312 135.477 23.0803 133.477 22.88C132.222 22.7296 131.477 22.6629 131.477 22.0116C131.477 21.4606 132.087 21.1265 133.018 21.1265C133.985 21.1265 134.647 21.5441 134.714 22.2288H137.002C136.883 20.4753 135.273 19.4567 132.934 19.4567C130.697 19.44 129.188 20.5588 129.188 22.2621C129.188 24.0322 130.765 24.4831 132.799 24.7169C134.206 24.9005 134.799 24.9506 134.799 25.6519C134.799 26.2532 134.189 26.5705 133.188 26.5705C132.019 26.5705 131.358 26.0527 131.273 25.3013H129.001ZM139.024 25.7021C139.024 27.3385 139.855 28.1568 141.516 28.1568H143.465V26.1697H142.279C141.651 26.1697 141.414 25.9191 141.414 25.318V21.5608H143.414V19.5735H141.414V17.1689H139.024V19.5735H137.583V21.5608H139.024V25.7021ZM148.744 28.257C151.067 28.257 152.575 26.9211 152.846 25.2512H150.49C150.287 26.0527 149.608 26.4702 148.642 26.4702C147.439 26.4702 146.642 25.7355 146.592 24.5165V24.3996H152.915C152.965 24.1324 152.982 23.8485 152.982 23.5981C152.948 21.0764 151.185 19.4734 148.574 19.4734C145.88 19.4734 144.1 21.21 144.1 23.8819C144.1 26.5371 145.846 28.257 148.744 28.257ZM146.642 22.8632C146.779 21.8446 147.558 21.2268 148.592 21.2268C149.676 21.2268 150.406 21.8112 150.575 22.8632H146.642ZM160.61 20.6423C160.051 19.941 159.186 19.4734 157.983 19.4734C155.661 19.4734 153.949 21.1934 153.949 23.8485C153.949 26.5705 155.661 28.257 158 28.257C159.254 28.257 160.103 27.7059 160.678 26.9712L160.915 28.1568H163V16.4676H160.61V20.6423ZM158.525 26.3366C157.22 26.3366 156.39 25.3348 156.39 23.8652C156.39 22.3957 157.22 21.3937 158.525 21.3937C159.83 21.3937 160.644 22.4124 160.644 23.8819C160.644 25.3348 159.83 26.3366 158.525 26.3366ZM30 41.0591C30.0169 43.4303 31.8985 45 34.9156 45C37.6955 45 39.5261 43.4971 39.5431 41.3095C39.5601 38.955 37.7632 38.3537 35.7293 37.9865C33.7629 37.619 32.8307 37.4186 32.8307 36.4668C32.8307 35.5651 33.6105 35.1142 34.6953 35.1142C35.9326 35.1142 36.6954 35.7989 36.8141 36.7841H39.3057C39.2719 34.5464 37.492 33.1103 34.6953 33.1103C32.0171 33.1103 30.2712 34.5798 30.2712 36.6505C30.2712 39.0217 32.0341 39.6563 34.0341 40.0237C36.0173 40.4077 36.9836 40.6082 36.9836 41.5933C36.9836 42.5119 36.1191 43.0129 34.9495 43.0129C33.4917 43.0129 32.5764 42.2279 32.4916 41.0925L30 41.0591ZM45.1876 45C47.5097 45 49.0184 43.6641 49.2896 41.9941H46.9335C46.7301 42.7957 46.0521 43.2132 45.0859 43.2132C43.8824 43.2132 43.0857 42.4785 43.0349 41.2594V41.1426H49.3573C49.4082 40.8754 49.4252 40.5915 49.4252 40.341C49.3913 37.8194 47.6285 36.2164 45.0181 36.2164C42.3229 36.2164 40.5432 37.953 40.5432 40.6248C40.5432 43.28 42.289 45 45.1876 45ZM43.0857 39.6062C43.2213 38.5876 44.001 37.9697 45.035 37.9697C46.1198 37.9697 46.8487 38.5542 47.0182 39.6062H43.0857ZM55.63 36.3165C54.2739 36.3165 53.5959 36.8342 53.1213 37.6023L52.901 36.3165H50.7313V44.8998H53.1213V40.6917C53.1213 39.3891 53.6638 38.454 55.0876 38.454H56.0368V36.3165H55.63ZM59.5581 44.8998H62.5244L65.6603 36.3165H63.1516L61.0836 42.4951L58.9818 36.3165H56.4223L59.5581 44.8998ZM67.6603 35.3981C68.44 35.3981 69.0502 34.8304 69.0502 34.0789C69.0502 33.3107 68.44 32.743 67.6603 32.743C66.8806 32.743 66.2704 33.3107 66.2704 34.0789C66.2704 34.8304 66.8806 35.3981 67.6603 35.3981ZM66.4568 44.8998H68.8638V36.3165H66.4568V44.8998ZM74.6144 45C76.9874 45 78.5638 43.7142 78.9028 41.6602H76.3941C76.2246 42.5285 75.5975 43.0796 74.6652 43.0796C73.4109 43.0796 72.6142 42.0777 72.6142 40.6082C72.6142 39.1553 73.4109 38.1367 74.6652 38.1367C75.5975 38.1367 76.1908 38.671 76.3941 39.5227H78.8858C78.5469 37.4855 77.0721 36.2164 74.6991 36.2164C71.9361 36.2164 70.1733 37.953 70.1733 40.6082C70.1733 43.3134 71.8514 45 74.6144 45ZM84.4682 45C86.7905 45 88.299 43.6641 88.5702 41.9941H86.2142C86.0107 42.7957 85.3327 43.2132 84.3666 43.2132C83.163 43.2132 82.3664 42.4785 82.3155 41.2594V41.1426H88.6381C88.689 40.8754 88.7058 40.5915 88.7058 40.341C88.672 37.8194 86.9091 36.2164 84.2987 36.2164C81.6036 36.2164 79.8238 37.953 79.8238 40.6248C79.8238 43.28 81.5698 45 84.4682 45ZM82.3664 39.6062C82.502 38.5876 83.2818 37.9697 84.3157 37.9697C85.4006 37.9697 86.1295 38.5542 86.2989 39.6062H82.3664ZM96.0808 44.8998L96.9959 42.3449H101.505L102.42 44.8998H105.15L100.844 33.2105H97.7934L93.4538 44.8998H96.0808ZM99.2338 35.8824L100.81 40.3243H97.6745L99.2338 35.8824ZM107.192 44.8998H109.734L111.294 39.7232L112.819 44.8998H115.363L118.227 36.3165H115.786L114.006 42.3783L112.413 36.3165H110.26L108.616 42.3615L106.87 36.3165H104.344L107.192 44.8998ZM126.972 42.9126C126.598 42.9126 126.412 42.8292 126.412 42.3783V39.339C126.412 37.285 125.005 36.2164 122.565 36.2164C120.259 36.2164 118.7 37.3185 118.53 38.9883H120.835C120.936 38.3538 121.564 37.9363 122.497 37.9363C123.496 37.9363 124.056 38.4373 124.056 39.2054V39.6229H122.327C119.716 39.6229 118.327 40.6583 118.327 42.4785C118.327 44.115 119.683 45 121.564 45C122.92 45 123.802 44.4489 124.412 43.4971C124.395 44.3153 124.785 44.8998 126.022 44.8998H127.242V42.9126H126.972ZM124.056 41.3596C124.038 42.5285 123.277 43.2967 122.022 43.2967C121.225 43.2967 120.733 42.9126 120.733 42.3114C120.733 41.5933 121.31 41.1927 122.31 41.1927H124.056V41.3596ZM133.066 36.3165C131.71 36.3165 131.031 36.8342 130.557 37.6023L130.337 36.3165H128.167V44.8998H130.557V40.6917C130.557 39.3891 131.099 38.454 132.523 38.454H133.472V36.3165H133.066ZM140.581 37.3852C140.022 36.6839 139.157 36.2164 137.954 36.2164C135.632 36.2164 133.919 37.9363 133.919 40.5915C133.919 43.3134 135.632 45 137.971 45C139.225 45 140.073 44.4489 140.648 43.7142L140.886 44.8998H142.971V33.2105H140.581V37.3852ZM138.496 43.0796C137.191 43.0796 136.36 42.0777 136.36 40.6082C136.36 39.1387 137.191 38.1367 138.496 38.1367C139.801 38.1367 140.615 39.1553 140.615 40.6248C140.615 42.0777 139.801 43.0796 138.496 43.0796Z" fill="#292F36"/>
<path d="M146.015 37.9579V37.1784L147.949 35.6334C148.393 35.2823 148.669 34.9874 148.669 34.5871C148.669 34.1025 148.342 33.8497 147.876 33.8497C147.389 33.8497 147.054 34.1728 147.054 34.7065V34.7837H146V34.6433C146 33.7163 146.72 33 147.883 33C149.076 33 149.723 33.625 149.723 34.5449C149.723 35.2683 149.316 35.7107 148.676 36.2093L147.534 37.1081H149.752V37.9579H146.015ZM150.2 35.6124V35.3876C150.2 33.9199 151.065 33 152.294 33C153.53 33 154.396 33.9199 154.396 35.3876V35.6124C154.396 37.1081 153.53 38 152.294 38C151.065 38 150.2 37.1081 150.2 35.6124ZM153.349 35.5772V35.4228C153.349 34.4115 152.92 33.8567 152.294 33.8567C151.676 33.8567 151.247 34.4115 151.247 35.4228V35.5772C151.247 36.5955 151.676 37.1433 152.294 37.1433C152.92 37.1433 153.349 36.5955 153.349 35.5772ZM154.799 37.9579V37.1784L156.734 35.6334C157.177 35.2823 157.454 34.9874 157.454 34.5871C157.454 34.1025 157.126 33.8497 156.661 33.8497C156.174 33.8497 155.839 34.1728 155.839 34.7065V34.7837H154.785V34.6433C154.785 33.7163 155.505 33 156.668 33C157.861 33 158.508 33.625 158.508 34.5449C158.508 35.2683 158.101 35.7107 157.461 36.2093L156.319 37.1081H158.537V37.9579H154.799ZM158.775 36.9045V36.0688L161.022 33.0421H162.295V36.0618H163V36.9045H162.295V37.9579H161.269V36.9045H158.775ZM161.269 34.0463L159.778 36.0618H161.269V34.0463Z" fill="#9A9FAA"/>
<path d="M-0.139404 26.9419L11.4807 37.4956L23.1008 26.9419H-0.139404Z" fill="#D9D9D9"/>
<path d="M-0.139404 26.9414H11.4807V16.3877L-0.139404 26.9414Z" fill="url(#paint0_linear_11_718)"/>
<path d="M23.1005 26.9419H11.4805V37.4956L23.1005 26.9419Z" fill="#9A9FAA"/>
<path d="M19.7434 44.9999L11.4803 37.4951L3.21704 44.9999H19.7434Z" fill="#9A9FAA"/>
<path d="M10.8955 6.48677H6.93498C7.10963 5.65733 7.85026 5.10495 8.8916 5.10495C9.93163 5.10495 10.5961 5.59357 10.8955 6.48677ZM13.405 8.30726V8.02992C13.405 4.7778 11.5586 2.77783 8.86272 2.77783C7.71107 2.77783 6.59093 3.26646 5.73869 4.14368C4.9022 5.00506 4.44653 6.12768 4.44653 7.34585C4.44653 8.56403 4.872 9.68678 5.69141 10.5821C6.56073 11.5253 7.60076 11.9798 8.89292 11.9798C10.7878 11.9798 12.1903 11.0526 13.0097 9.23213H10.2652C9.88566 9.57308 9.47596 9.72075 8.97039 9.72075C7.88177 9.72075 7.23569 9.23213 7.01508 8.30726H13.4023H13.405Z" fill="#292F36"/>
<path d="M20.3252 6.48677H16.366C16.5393 5.65733 17.2813 5.10495 18.3213 5.10495C19.3626 5.10495 20.0232 5.59357 20.3252 6.48677ZM22.8346 8.30726V8.02992C22.8346 4.7778 20.9896 2.77783 18.2924 2.77783C17.1421 2.77783 16.0219 3.26646 15.1684 4.14368C14.3332 5.00506 13.8762 6.12768 13.8762 7.34585C13.8762 8.56403 14.3017 9.68678 15.1224 10.5821C15.9904 11.5253 17.0318 11.9798 18.3239 11.9798C20.2175 11.9798 21.62 11.0526 22.4407 9.23213H19.6949C19.3154 9.57308 18.9056 9.72075 18.4027 9.72075C17.3141 9.72075 16.668 9.23213 16.4474 8.30726H22.8346Z" fill="#292F36"/>
<path d="M0.913959 4.99072V11.7701H3.36039V4.99072H4.35445V3.04083H3.36039V2.82955C3.36039 2.03178 3.53372 1.77271 4.29011 1.77271H4.35445V0.015969C4.21263 0.015969 4.08525 0 3.95919 0C1.8765 0 0.899517 0.845409 0.899517 2.71585C0.899517 2.81357 0.913959 2.92727 0.913959 3.04083H0V4.99302H0.913959V4.99072Z" fill="#292F36"/>
<path d="M23.7843 4.99232V11.7716H26.2294V4.99232H27.2235V3.0423H26.2294V2.83101C26.2294 2.03324 26.404 1.77418 27.1604 1.77418H27.2221V0.0174339C27.0803 0.0174339 26.9529 0.00146484 26.8269 0.00146484C24.7455 0.00146484 23.7672 0.846878 23.7672 2.71732C23.7672 2.81504 23.7817 2.92874 23.7817 3.0423H22.8677V4.99449H23.7817L23.7843 4.99232Z" fill="#292F36"/>
<path d="M33.6827 7.41392C33.6827 8.60029 32.7832 9.55926 31.6801 9.55926C30.5784 9.55926 29.6762 8.60029 29.6762 7.41392C29.6762 6.22756 30.5757 5.25261 31.6801 5.25261C32.7858 5.25261 33.6827 6.21172 33.6827 7.41392ZM36.1593 7.35031C36.1593 6.16394 35.6695 4.95944 34.7713 4.08222C33.9204 3.25264 32.8646 2.81396 31.6315 2.81396C30.4812 2.81396 29.361 3.30259 28.5075 4.17995C27.6723 5.04119 27.2153 6.16394 27.2153 7.38212C27.2153 8.60029 27.6408 9.7229 28.4615 10.6024C29.3295 11.5456 30.3709 12.0001 31.663 12.0001C32.9552 12.0001 34.0136 11.5297 34.8816 10.6342C35.7338 9.75702 36.1593 8.66607 36.1593 7.35031Z" fill="#292F36"/>
<path d="M39.99 5.93253C38.7898 5.85754 37.8246 4.86446 37.7576 3.62585H43.0051V3.5667C43.0051 1.4418 41.6893 0.0258789 39.8679 0.0258789C37.9454 0.0258789 36.6401 1.47821 36.6401 3.36449C36.6401 5.14627 37.9914 6.71663 39.8351 6.71663C41.1758 6.71663 42.2408 5.9508 42.812 4.53258H42.2828C41.9007 5.36216 41.0826 5.93484 40.1332 5.93484C40.0846 5.93484 40.0399 5.93483 39.9913 5.93037" fill="#FFD100"/>
<path d="M46.6501 5.93253C47.8504 5.85754 48.8156 4.86446 48.8812 3.62585H43.6338V3.5667C43.6338 1.4418 44.9509 0.0258789 46.7723 0.0258789C48.6947 0.0258789 50 1.47821 50 3.36449C50 5.14627 48.6475 6.71663 46.8051 6.71663C45.4657 6.71663 44.402 5.9508 43.8281 4.53258H44.36C44.7408 5.36216 45.5589 5.93484 46.5096 5.93484C46.5582 5.93484 46.6016 5.93483 46.6501 5.93037" fill="#FFD100"/>
</g>
<defs>
<linearGradient id="paint0_linear_11_718" x1="-0.139404" y1="21.6645" x2="11.4807" y2="21.6645" gradientUnits="userSpaceOnUse">
<stop offset="0.4062" stop-color="#C4C4C4"/>
<stop offset="1" stop-color="#D9D9D9" stop-opacity="0"/>
</linearGradient>
<clipPath id="clip0_11_718">
<rect width="168" height="45" fill="white"/>
</clipPath>
</defs>
</svg>
