<?xml version="1.0" encoding="utf-8"?><svg version="1.1" id="Layer_1" xmlns="http://www.w3.org/2000/svg" xmlns:xlink="http://www.w3.org/1999/xlink" x="0px" y="0px" viewBox="0 0 122.9 122.2" style="enable-background:new 0 0 122.9 122.2" xml:space="preserve"><style type="text/css">.st0{fill-rule:evenodd;clip-rule:evenodd;fill:#ffffff;} .st1{fill-rule:evenodd;clip-rule:evenodd;fill:#fff;}</style><g><path class="st0" d="M21.1,0h81.7c1.9,0,3.5,1.6,3.5,3.5c0,1.9-1.6,3.5-3.5,3.5H21.1c-1.9,0-3.5-1.6-3.5-3.5 C17.6,1.6,19.2,0,21.1,0L21.1,0L21.1,0z M121.6,44.3v4.2c0,0.4,0.1,0.8,0.1,1.2c0,7.1-6.6,12.8-14.7,12.8 c-8.1,0-14.7-5.7-14.7-12.8c0-0.3,0-0.6,0-0.9h-0.6c0,0.3,0,0.6,0,0.9c0,7.1-6.6,12.8-14.7,12.8c-8.1,0-14.7-5.7-14.7-12.8 c0-0.3,0-0.6,0-0.9h-0.6c0,0.3,0,0.6,0,0.9c0,7.1-6.6,12.8-14.7,12.8c-8.1,0-14.7-5.7-14.7-12.8c0-0.3,0-0.6,0-0.9h-0.4 c0,0.3,0,0.6,0,0.9c0,7.1-6.6,12.8-14.7,12.8c-8.1,0-14.7-5.7-14.7-12.8c0-0.3,0-0.7,0.1-1v-4.4H121.6L121.6,44.3L121.6,44.3z M17.3,10.7h89.9l11.5,24.5H5.4L17.3,10.7L17.3,10.7L17.3,10.7z M3.5,106.9h12.4V71.5c0.2,0,0.4,0,0.6,0h0.1h0.2h0h0H17h0h0.1v0h0 v0c5.6,0,10.8-1.8,14.9-4.8l0,0l0,0l0,0l0,0l0,0l0,0l0,0l0,0l0,0l0,0l0,0h0l0.1,0.1l0,0l0,0l0,0l0.1,0l0,0l0,0l0,0l0,0l0,0l0,0l0,0 l0,0.1l0,0l0,0l0,0l0,0l0,0l0,0l0,0l0,0l0,0h0l0.2,0.2l0,0l0,0l0.2,0.1l0,0l0.2,0.1l0,0l0,0l0,0l0,0l0,0l0,0l0,0l0,0v31.7h5.5 c0.2,0.6,0.5,1.2,0.8,1.8c1.4,3,3.2,5.9,5.4,8.7c1.6,2.1,3.5,4,5.5,5.8c2,1.8,4.1,3.4,6.5,4.9l0,0c1.4,0.9,3,1.3,4.5,1.2 c1.4,0,2.9-0.5,4.1-1.3c1.7-1,3.2-2.1,4.6-3.3c1.4-1.1,2.7-2.4,3.9-3.7c0.3-0.2,0.5-0.5,0.7-0.8c2.4-2.7,4.4-5.6,6-8.7 c0.8-1.5,1.5-3.1,2.1-4.6h5.3V68.6c0.9-0.5,1.7-1,2.6-1.5l0,0h0l0.2-0.1l0,0l0.1,0l0.1,0l0,0l0.1-0.1h0l0,0l0.2-0.1 c4.1,3,9.3,4.9,15,4.9v0h0v0h0V107h12.4c1.9,0,3.5,3.4,3.5,7.6c0,4.2-1.6,7.6-3.5,7.6H3.5c-1.9,0-3.5-3.4-3.5-7.6 C0,110.4,1.6,106.9,3.5,106.9L3.5,106.9L3.5,106.9z"/><path class="st1" d="M69.8,108.7c-2.1,2.3-4.5,4.3-7.3,6c-0.3,0.2-0.8,0.3-1.2,0c-4-2.6-7.4-5.7-10.1-9c-3.7-4.6-6-9.7-6.8-14.7 c-0.8-5-0.1-9.8,2.4-13.7c1-1.5,2.2-3,3.8-4.2c3.5-2.8,7.5-4.3,11.5-4.2c3.8,0,7.6,1.5,10.9,4.5c1.2,1,2.1,2.2,2.9,3.6 c2.7,4.4,3.3,10,2.1,15.7C77,98.3,74.1,104,69.8,108.7L69.8,108.7L69.8,108.7L69.8,108.7L69.8,108.7z M61.4,77.8 c4.7,0,8.6,3.8,8.6,8.6c0,4.7-3.8,8.6-8.6,8.6c-4.7,0-8.6-3.8-8.6-8.6C52.8,81.6,56.7,77.8,61.4,77.8L61.4,77.8L61.4,77.8 L61.4,77.8z"/></g></svg>