<svg width="287" height="136" viewBox="0 0 287 136" fill="none" xmlns="http://www.w3.org/2000/svg">
<rect width="287" height="135.812" rx="67.9062" fill="url(#paint0_linear_114_438)"/>
<rect x="5.28076" y="2" width="276.44" height="128.417" rx="64.2086" fill="url(#paint1_linear_114_438)" stroke="#FFD000" stroke-width="4"/>
<path fill-rule="evenodd" clip-rule="evenodd" d="M63.4068 93.3696V58.2798H54.1206V45.1332L56.9722 45.0628C58.6598 45.0212 60.1389 44.8774 61.4211 44.6443C62.535 44.4006 63.4829 44.0021 64.2961 43.4701C65.042 42.9401 65.7617 42.1586 66.4219 41.0333L67.2713 39.5855H78.8059V93.3696H63.4068ZM65.9288 45.924C64.7708 46.6902 63.4569 47.2311 61.9872 47.5466C60.5174 47.8171 58.8695 47.9748 57.0434 48.0199V55.3218H66.3296V90.4117H75.8831V42.5435H68.9351C68.0889 43.9858 67.0868 45.1127 65.9288 45.924Z" fill="white"/>
<path fill-rule="evenodd" clip-rule="evenodd" d="M83.885 93.3699V81.0467L98.0165 69.1531C98.969 68.3272 100.05 67.4156 101.258 66.4195C102.416 65.457 103.51 64.4326 104.543 63.3459L104.563 63.325L104.583 63.3045C105.568 62.3076 106.33 61.2874 106.896 60.2486L106.915 60.2149L106.934 60.1816C107.451 59.2886 107.668 58.4483 107.668 57.6209C107.668 56.3592 107.304 55.5701 106.721 54.9798L106.701 54.96L106.682 54.9399C106.251 54.4868 105.416 54.0206 103.643 54.0206C101.934 54.0206 100.95 54.4161 100.372 54.876L100.36 54.885C99.6939 55.4095 99.3201 56.0207 99.1536 56.8149L98.6623 59.159H83.8948L84.1626 55.952C84.4671 52.3052 85.5549 49.0853 87.5792 46.4676L87.5843 46.461C89.5478 43.9369 92.0294 42.0497 94.9836 40.8218C97.8386 39.635 100.844 39.0449 103.977 39.0449C107.333 39.0449 110.468 39.6805 113.337 41.0003C116.254 42.3422 118.622 44.3369 120.364 46.9761C122.183 49.6861 123.001 52.934 123.001 56.5391C123.001 59.6257 122.415 62.5138 121.193 65.1532C120.073 67.6217 118.535 69.9057 116.608 72.0064L116.596 72.0194L116.584 72.0323C114.743 73.9901 112.682 75.8624 110.405 77.6515L109.337 78.5294H122.934V93.3699H83.885ZM101.105 81.4874L108.587 75.3348C110.769 73.622 112.729 71.8416 114.466 69.9936C116.203 68.1005 117.561 66.0722 118.541 63.9087C119.566 61.7001 120.078 59.2435 120.078 56.5391C120.078 53.384 119.365 50.7472 117.94 48.6287C116.515 46.4652 114.577 44.82 112.128 43.6931C109.678 42.5663 106.961 42.0029 103.977 42.0029C101.216 42.0029 98.5881 42.5212 96.094 43.5579C93.5999 44.5946 91.5288 46.1722 89.8809 48.2907C88.8017 49.6862 88.0252 51.337 87.5513 53.2431C87.3211 54.1689 87.1624 55.1549 87.075 56.2011H96.2944C96.6062 54.7136 97.3633 53.4967 98.5659 52.5501C99.8129 51.5585 101.505 51.0627 103.643 51.0627C105.915 51.0627 107.629 51.6712 108.787 52.8882C109.99 54.1052 110.591 55.6827 110.591 57.6209C110.591 59.0182 110.213 60.3704 109.455 61.6775C108.743 62.9847 107.808 64.2242 106.65 65.3961C105.536 66.568 104.356 67.6723 103.109 68.709C101.906 69.7006 100.837 70.6021 99.902 71.4134L86.8078 82.4339V90.412H120.011V81.4874H101.105Z" fill="white"/>
<path d="M226.201 59.4753C226.201 60.9122 225.865 62.1611 225.192 63.2221C224.52 64.2832 223.537 65.101 222.245 65.6758C220.964 66.2505 219.405 66.5379 217.569 66.5379C216.757 66.5379 215.962 66.4826 215.183 66.3721C214.414 66.2616 213.672 66.1013 212.956 65.8913C212.252 65.6702 211.579 65.3995 210.938 65.0789V60.3043C212.049 60.8127 213.202 61.2714 214.398 61.6803C215.594 62.0893 216.779 62.2937 217.953 62.2937C218.765 62.2937 219.416 62.1832 219.907 61.9622C220.409 61.7411 220.772 61.4372 220.996 61.0503C221.22 60.6635 221.333 60.2214 221.333 59.724C221.333 59.1161 221.135 58.5967 220.74 58.1656C220.345 57.7346 219.8 57.3312 219.106 56.9554C218.423 56.5796 217.649 56.1762 216.784 55.7451C216.24 55.4799 215.647 55.1594 215.006 54.7836C214.366 54.3967 213.757 53.927 213.181 53.3744C212.604 52.8218 212.129 52.1531 211.755 51.3684C211.392 50.5726 211.211 49.6221 211.211 48.5168C211.211 47.069 211.531 45.8311 212.172 44.8032C212.812 43.7753 213.725 42.9906 214.91 42.4491C216.106 41.8964 217.515 41.6201 219.138 41.6201C220.356 41.6201 221.514 41.7693 222.614 42.0677C223.724 42.3551 224.883 42.7751 226.089 43.3277L224.488 47.3232C223.409 46.87 222.443 46.5219 221.589 46.2787C220.735 46.0245 219.864 45.8974 218.978 45.8974C218.359 45.8974 217.83 46.0024 217.393 46.2124C216.955 46.4114 216.624 46.6987 216.4 47.0745C216.175 47.4392 216.063 47.8648 216.063 48.3511C216.063 48.9258 216.224 49.4121 216.544 49.81C216.875 50.1968 217.366 50.5726 218.017 50.9373C218.679 51.3021 219.501 51.7276 220.484 52.2139C221.68 52.7997 222.699 53.4131 223.543 54.0541C224.397 54.6841 225.053 55.4302 225.513 56.2922C225.972 57.1433 226.201 58.2043 226.201 59.4753Z" fill="white"/>
<path d="M197.549 41.9683C199.674 41.9683 201.425 42.2335 202.802 42.764C204.19 43.2946 205.221 44.0959 205.893 45.168C206.566 46.24 206.902 47.594 206.902 49.2297C206.902 50.335 206.7 51.3021 206.294 52.131C205.888 52.9599 205.354 53.6618 204.692 54.2365C204.03 54.8112 203.315 55.2809 202.546 55.6457L209.433 66.2063H203.924L198.334 56.9057H195.692V66.2063H190.727V41.9683H197.549ZM197.197 46.1793H195.692V52.7278H197.293C198.937 52.7278 200.112 52.446 200.817 51.8823C201.532 51.3076 201.89 50.4676 201.89 49.3624C201.89 48.2129 201.505 47.395 200.736 46.9087C199.978 46.4224 198.799 46.1793 197.197 46.1793Z" fill="white"/>
<path d="M182.415 66.2063L180.717 60.4369H172.181L170.483 66.2063H165.134L173.398 41.8688H179.468L187.764 66.2063H182.415ZM179.532 56.1265L177.834 50.4897C177.727 50.1139 177.583 49.6331 177.402 49.0474C177.231 48.4505 177.055 47.8482 176.873 47.2403C176.702 46.6214 176.564 46.0853 176.457 45.6322C176.35 46.0853 176.2 46.649 176.008 47.3232C175.827 47.9863 175.651 48.6163 175.48 49.2132C175.309 49.81 175.186 50.2355 175.111 50.4897L173.43 56.1265H179.532Z" fill="white"/>
<path d="M163.18 66.2063H149.695V41.9683H163.18V46.1793H154.659V51.501H162.587V55.712H154.659V61.9622H163.18V66.2063Z" fill="white"/>
<path d="M136.514 51.9486L141.399 41.9683H146.748L138.98 56.773V66.2063H134.047V56.9388L126.28 41.9683H131.661L136.514 51.9486Z" fill="white"/>
<path d="M226.959 93.3702H217.833V76.4036H226.959V78.1444H219.739V83.6336H226.544V85.3511H219.739V91.6295H226.959V93.3702Z" fill="white"/>
<path d="M214.19 84.7245C214.19 86.6354 213.853 88.2331 213.181 89.5173C212.508 90.7939 211.533 91.7571 210.255 92.407C208.984 93.0492 207.441 93.3702 205.624 93.3702H201.174V76.4036H206.118C207.784 76.4036 209.219 76.7208 210.423 77.3552C211.626 77.9819 212.553 78.9142 213.203 80.1521C213.861 81.3822 214.19 82.9063 214.19 84.7245ZM212.183 84.7941C212.183 83.2699 211.936 82.0127 211.443 81.0224C210.957 80.0321 210.24 79.2971 209.29 78.8175C208.349 78.3301 207.194 78.0864 205.826 78.0864H203.08V91.6759H205.4C207.657 91.6759 209.35 91.0995 210.479 89.9467C211.615 88.794 212.183 87.0764 212.183 84.7941Z" fill="white"/>
<path d="M196.925 93.3702L194.907 87.9855H188.337L186.33 93.3702H184.402L190.815 76.334H192.53L198.898 93.3702H196.925ZM194.335 86.2331L192.418 80.8832C192.373 80.7439 192.298 80.5157 192.194 80.1985C192.097 79.8813 191.996 79.5525 191.891 79.212C191.786 78.8716 191.7 78.597 191.633 78.3881C191.558 78.7053 191.476 79.0225 191.387 79.3397C191.304 79.6492 191.222 79.9393 191.14 80.2101C191.058 80.4731 190.987 80.6975 190.927 80.8832L188.976 86.2331H194.335Z" fill="white"/>
<path d="M176.902 76.4036C178.247 76.4036 179.357 76.5777 180.232 76.9258C181.114 77.2663 181.771 77.7885 182.205 78.4925C182.638 79.1966 182.855 80.094 182.855 81.1849C182.855 82.0824 182.698 82.8328 182.384 83.4363C182.07 84.032 181.659 84.5156 181.151 84.8869C180.643 85.2583 180.101 85.5445 179.525 85.7457L184.021 93.3702H181.801L177.788 86.2911H174.38V93.3702H172.474V76.4036H176.902ZM176.79 78.1096H174.38V84.62H176.98C178.318 84.62 179.301 84.3376 179.929 83.7728C180.564 83.2081 180.882 82.3764 180.882 81.2777C180.882 80.125 180.546 79.3088 179.873 78.8291C179.208 78.3494 178.18 78.1096 176.79 78.1096Z" fill="white"/>
<path d="M164.861 93.3702H162.944V78.1444H157.787V76.4036H169.996V78.1444H164.861V93.3702Z" fill="white"/>
<path d="M149.39 93.3702H147.193L138.258 79.1192H138.168C138.191 79.4983 138.217 79.9316 138.247 80.419C138.277 80.8986 138.299 81.4131 138.314 81.9624C138.336 82.504 138.348 83.0572 138.348 83.622V93.3702H136.576V76.4036H138.762L147.664 90.6082H147.742C147.727 90.3374 147.709 89.9545 147.686 89.4593C147.664 88.9564 147.641 88.4187 147.619 87.8462C147.604 87.266 147.597 86.7283 147.597 86.2331V76.4036H149.39V93.3702Z" fill="white"/>
<path d="M130.164 93.3702V76.4036H132.069V93.3702H130.164Z" fill="white"/>
<path d="M229.725 26.7865C229.232 26.5397 228.758 26.2549 228.359 25.8751C228.151 25.6853 227.98 25.5144 227.828 25.3245C227.677 25.1346 227.563 24.9637 227.468 24.7929C227.279 24.4321 227.222 24.0904 227.279 23.7676C227.544 23.8056 227.828 23.8435 228.094 23.9195C228.359 23.9954 228.644 24.1093 228.89 24.2233C229.156 24.3372 229.402 24.4701 229.649 24.622C229.895 24.7739 230.123 24.9448 230.313 25.1346C231.128 25.9131 231.393 26.7105 231.204 27.3181C230.711 27.2422 230.199 27.0523 229.725 26.7865Z" fill="white"/>
<path d="M228.719 29.4068C228.472 29.4638 228.207 29.5208 227.96 29.5397C227.714 29.5587 227.448 29.5777 227.202 29.5587C226.955 29.5587 226.709 29.5397 226.481 29.5018C226.5 29.179 226.652 28.8562 226.917 28.5524C227.05 28.4005 227.202 28.2486 227.391 28.1157C227.581 27.9828 227.79 27.8689 228.036 27.774C228.51 27.5651 229.06 27.4512 229.591 27.3942C230.122 27.3752 230.672 27.4322 231.146 27.5461C231.032 28.1727 230.406 28.7613 229.458 29.141C229.212 29.2739 228.965 29.3499 228.719 29.4068Z" fill="white"/>
<path d="M232.664 26.804C231.887 25.9306 231.545 25.0952 231.735 24.4307C232.304 24.5446 232.873 24.7914 233.404 25.0952C233.669 25.2471 233.935 25.418 234.162 25.6078C234.39 25.7977 234.617 26.0256 234.807 26.2344C235.584 27.1458 235.774 28.0192 235.509 28.6457C234.504 28.323 233.461 27.6394 232.664 26.804Z" fill="white"/>
<path d="M232.646 30.5453C232.381 30.5833 232.096 30.6023 231.831 30.6023C231.3 30.6023 230.769 30.5264 230.295 30.4124C230.427 29.7479 231.053 29.0834 232.115 28.7606C233.196 28.4188 234.429 28.5138 235.434 28.8935C235.244 29.539 234.504 30.0897 233.461 30.3935C233.177 30.4694 232.912 30.5264 232.646 30.5453Z" fill="white"/>
<path d="M239.15 30.1493C238.904 29.9784 238.638 29.8075 238.411 29.6177C237.937 29.2189 237.501 28.7443 237.121 28.2696C236.382 27.2823 236.135 26.314 236.42 25.6494C237.008 25.8583 237.576 26.181 238.107 26.5608C238.638 26.9405 239.093 27.4342 239.454 27.9468C239.814 28.4595 240.004 28.9721 240.08 29.4278C240.136 29.8835 240.08 30.2822 239.89 30.586C239.662 30.4531 239.397 30.3202 239.15 30.1493Z" fill="white"/>
<path d="M235.774 32.1986C235.205 32.1416 234.655 32.0087 234.181 31.8188C234.39 31.1163 235.111 30.5467 236.286 30.2999C236.874 30.167 237.481 30.205 238.088 30.2999C238.391 30.3569 238.695 30.4138 238.979 30.5087C239.263 30.6037 239.529 30.7366 239.775 30.8695C239.624 31.1923 239.339 31.4771 238.96 31.7049C238.581 31.9328 238.088 32.0847 237.5 32.1796C236.931 32.2555 236.362 32.2366 235.774 32.1986Z" fill="white"/>
<path d="M242.847 31.9488C242.392 31.4741 241.975 30.9425 241.652 30.3539C241.576 30.202 241.501 30.0691 241.444 29.9172C241.387 29.7843 241.311 29.6514 241.273 29.5185C241.178 29.2527 241.102 29.0058 241.064 28.759C240.989 28.2653 241.045 27.8476 241.254 27.5059C241.842 27.7907 242.449 28.1704 242.942 28.683C243.454 29.1767 243.89 29.7083 244.193 30.3349C244.8 31.5501 244.781 32.5564 244.307 33.1829C243.795 32.8412 243.283 32.4424 242.847 31.9488Z" fill="white"/>
<path d="M239.663 32.5403C239.796 32.5023 239.929 32.4643 240.08 32.4454C240.232 32.4264 240.365 32.4074 240.535 32.3884C241.161 32.3504 241.825 32.4264 242.451 32.6162C243.057 32.8061 243.664 33.0909 244.157 33.4327C243.759 34.0782 242.811 34.4959 241.578 34.5339C240.971 34.5339 240.327 34.4959 239.758 34.344C239.17 34.1922 238.601 34.0023 238.127 33.7365C238.279 33.3947 238.563 33.0719 238.98 32.8441C239.17 32.7302 239.398 32.6162 239.663 32.5403Z" fill="white"/>
<path d="M247.872 35.8248C247.645 35.578 247.436 35.2932 247.227 35.0084C247.019 34.7236 246.829 34.4388 246.659 34.116C246.488 33.8122 246.336 33.4705 246.203 33.1667C245.672 31.8756 245.653 30.7364 246.147 30.0908C246.734 30.4895 247.284 30.9832 247.777 31.5528C248.251 32.1414 248.631 32.8059 248.877 33.4705C249.351 34.8375 249.181 35.9198 248.612 36.5084C248.327 36.3185 248.1 36.0717 247.872 35.8248Z" fill="white"/>
<path d="M252.613 40.6669C251.703 39.6417 250.945 38.2366 250.565 36.7936C250.376 36.0721 250.319 35.4076 250.376 34.857C250.433 34.3063 250.622 33.8507 250.926 33.5469C251.077 33.6608 251.21 33.7937 251.343 33.9266C251.476 34.0595 251.608 34.2114 251.741 34.3633C251.988 34.6671 252.234 34.9899 252.443 35.3316C252.67 35.6544 252.841 36.0342 252.993 36.3949C253.144 36.7557 253.258 37.1354 253.353 37.5151C253.656 39.0341 253.296 40.1543 252.613 40.6669Z" fill="white"/>
<path d="M256.216 45.6416C256.008 45.3378 255.818 45.015 255.667 44.6543C255.496 44.3125 255.363 43.9328 255.211 43.572C254.927 42.8315 254.756 42.0151 254.662 41.2366C254.567 40.4582 254.624 39.7367 254.756 39.1671C254.908 38.5975 255.155 38.1418 255.534 37.876C255.667 38.0279 255.799 38.1798 255.932 38.3506C256.065 38.5215 256.16 38.6924 256.273 38.8823C256.501 39.243 256.691 39.6228 256.88 40.0025C257.221 40.781 257.43 41.6354 257.487 42.4518C257.563 44.1037 257.032 45.2049 256.216 45.6416Z" fill="white"/>
<path d="M260.387 50.4444C260.045 50.976 259.628 51.3368 259.154 51.4887C259.078 51.3178 259.021 51.1279 258.946 50.938C258.87 50.7482 258.813 50.5583 258.737 50.3684C258.623 49.9697 258.528 49.571 258.453 49.1533C258.377 48.7356 258.301 48.3179 258.282 47.8812C258.244 47.4634 258.263 47.0078 258.263 46.5901C258.282 45.7546 258.434 45.0141 258.699 44.4256C258.946 43.837 259.287 43.4192 259.723 43.1914C259.97 43.5522 260.159 43.9509 260.349 44.3686C260.519 44.7863 260.69 45.223 260.804 45.6597C260.918 46.1154 260.994 46.5711 261.031 47.0078C261.069 47.4634 261.088 47.9001 261.031 48.3368C260.937 49.2102 260.709 49.9128 260.387 50.4444Z" fill="white"/>
<path d="M225.42 27.3565C225.117 27.3755 224.813 27.3755 224.491 27.3565C224.168 27.3375 223.865 27.2806 223.562 27.2236C223.277 27.1666 222.993 27.0907 222.727 27.0147C222.196 26.8439 221.741 26.597 221.4 26.3122C221.741 26.0464 222.215 25.8186 222.784 25.6857C223.069 25.6097 223.353 25.5528 223.675 25.5338C223.979 25.5148 224.32 25.5148 224.642 25.5338C224.984 25.5528 225.306 25.6097 225.61 25.6667C225.913 25.7426 226.197 25.8376 226.463 25.9515C226.975 26.1793 227.411 26.4451 227.714 26.7679C228.151 26.8439 228.606 26.9198 229.099 26.9958C230.767 27.3185 232.815 27.7742 235.053 28.5907C237.31 29.3881 239.775 30.4893 242.297 31.9703C244.838 33.4703 247.398 35.3879 249.825 37.7233C250.128 38.0081 250.432 38.3119 250.716 38.6157C251.001 38.9195 251.304 39.2233 251.607 39.5461C251.892 39.8688 252.176 40.1916 252.461 40.5334C252.593 40.7043 252.745 40.8562 252.897 41.027C253.03 41.1979 253.162 41.3688 253.314 41.5397C254.433 42.9067 255.457 44.4257 256.424 45.9826C256.651 46.3813 256.879 46.7801 257.126 47.1788C257.353 47.5775 257.562 47.9952 257.77 48.4129L258.093 49.0395C258.206 49.2483 258.282 49.4572 258.396 49.685C258.586 50.1217 258.794 50.5394 258.984 50.9761C259.704 52.7229 260.368 54.5457 260.861 56.4064C260.975 56.8431 261.089 57.2798 261.184 57.7165C261.127 57.4127 261.07 57.1279 261.032 56.8051C260.975 56.3684 260.937 55.9317 260.937 55.476C260.937 54.5647 260.975 53.6533 261.184 52.7609C261.278 52.3052 261.392 51.9065 261.525 51.5458C261.658 51.185 261.809 50.8432 261.999 50.5584C262.359 49.9888 262.795 49.5901 263.288 49.4192C263.649 50.2736 263.914 51.223 263.99 52.2103C264.028 52.704 264.047 53.1976 264.009 53.6723C263.971 54.1659 263.895 54.6406 263.762 55.0773C263.535 55.9697 263.156 56.6912 262.701 57.1848C262.264 57.6785 261.752 57.9633 261.24 58.0582C261.733 60.2417 262.037 62.4822 262.17 64.7226C262.17 64.4948 262.17 64.2669 262.17 64.0391C262.189 63.5834 262.245 63.1087 262.34 62.6341C262.397 62.1594 262.492 61.6847 262.625 61.2101C262.682 60.9822 262.757 60.7354 262.833 60.5075C262.909 60.2797 262.985 60.0519 263.08 59.824C263.25 59.3683 263.459 58.9696 263.668 58.6089C263.876 58.2481 264.123 57.9253 264.35 57.6595C264.824 57.1279 265.355 56.7861 265.905 56.7102C266.171 57.6595 266.209 58.7418 266.152 59.786C266.114 60.3177 266.019 60.8303 265.886 61.324C265.754 61.8176 265.602 62.3113 265.393 62.767C264.957 63.6783 264.445 64.3429 263.895 64.7796C263.345 65.2163 262.757 65.4062 262.208 65.4062C262.245 66.2795 262.245 67.1529 262.226 68.0263C262.226 69.0137 262.132 70.001 262.056 70.9693L261.904 72.2224C261.923 72.0895 261.961 71.9756 261.98 71.8427C262.037 71.5959 262.113 71.368 262.189 71.1212C262.264 70.8744 262.34 70.6465 262.416 70.3997C262.587 69.925 262.795 69.4314 263.023 68.9757C263.232 68.501 263.478 68.0453 263.762 67.6276C264.331 66.7542 264.881 66.0707 265.488 65.596C266.095 65.1213 266.721 64.8745 267.308 64.8935C267.327 65.4251 267.327 65.9758 267.271 66.5264C267.233 67.077 267.1 67.6276 266.948 68.1782C266.683 69.2605 266.171 70.2858 265.583 71.1592C264.331 72.868 262.909 73.5135 261.752 73.2857L261.639 73.8933C261.335 75.8299 260.842 77.7286 260.254 79.5893C260.197 79.7792 260.141 79.9501 260.065 80.1399C260.084 80.083 260.103 80.026 260.141 79.9691C260.368 79.4944 260.653 79.0197 260.918 78.564C261.202 78.0894 261.506 77.6337 261.847 77.197C262.17 76.7603 262.511 76.3236 262.909 75.9249C263.288 75.5261 263.668 75.1844 264.028 74.8806C264.407 74.5768 264.767 74.349 265.128 74.1591C265.867 73.7983 266.55 73.6464 267.176 73.7794C266.872 76.0388 265.716 78.4501 264.066 80.007C263.232 80.7855 262.378 81.2602 261.62 81.469C260.88 81.6779 260.197 81.6399 259.629 81.4121C259.515 81.7159 259.401 82.0196 259.268 82.3234C259.098 82.7791 258.889 83.2158 258.699 83.6525L258.415 84.2981L258.263 84.6208L258.093 84.9436C257.884 85.3613 257.656 85.798 257.448 86.2157C257.22 86.6334 256.993 87.0322 256.765 87.4499L256.462 87.9815C257.505 86.6524 258.794 85.3993 260.216 84.412C260.691 84.0702 261.184 83.8044 261.62 83.5766C262.075 83.3487 262.511 83.1778 262.928 83.0639C263.762 82.8361 264.521 82.8361 265.128 83.1209C264.331 85.4373 262.568 87.6967 260.482 88.9309C259.951 89.2346 259.458 89.4815 258.984 89.6334C258.491 89.7853 258.036 89.8802 257.6 89.8992C256.784 89.9372 256.102 89.7473 255.571 89.3865C255.476 89.5384 255.381 89.6903 255.286 89.8232C254.755 90.5827 254.243 91.3422 253.674 92.0447C253.39 92.4054 253.124 92.7662 252.84 93.108C252.556 93.4497 252.252 93.7915 251.968 94.1333C251.683 94.475 251.361 94.7788 251.076 95.1206C251.001 95.1965 250.925 95.2915 250.849 95.3674C252.214 94.2851 253.826 93.3358 255.495 92.6333C256.083 92.4054 256.614 92.2156 257.144 92.0827C257.675 91.9498 258.168 91.8738 258.643 91.8548C259.553 91.7979 260.349 91.9877 260.918 92.4054C260.747 92.6903 260.558 92.9561 260.368 93.2219C260.16 93.4877 259.951 93.7535 259.723 94.0003C259.496 94.2472 259.268 94.513 259.022 94.7408C258.775 94.9877 258.51 95.1965 258.244 95.4244C257.182 96.2978 255.95 96.9623 254.736 97.38C252.328 98.1395 250.47 97.7028 249.54 96.6775C249.142 97.0572 248.725 97.4559 248.308 97.7977C247.037 98.9369 245.71 99.9242 244.402 100.836C244.06 101.044 243.738 101.272 243.397 101.481C243.34 101.519 243.283 101.557 243.207 101.595C244.876 100.855 246.734 100.285 248.611 100C249.256 99.9053 249.882 99.8293 250.451 99.8293C251.038 99.8293 251.569 99.8673 252.044 99.9432C253.011 100.114 253.788 100.494 254.262 101.063C253.769 101.557 253.219 102.032 252.612 102.449C252.006 102.867 251.38 103.266 250.697 103.57C249.37 104.215 247.929 104.614 246.544 104.709C245.843 104.747 245.217 104.728 244.648 104.652C244.079 104.576 243.567 104.405 243.112 104.215C242.278 103.836 241.709 103.304 241.368 102.696C241.216 102.791 241.064 102.886 240.912 102.962C240.742 103.057 240.571 103.133 240.419 103.228C238.068 104.462 235.792 105.392 233.669 106.057C233.858 106.019 234.067 106 234.257 105.962C234.598 105.924 234.939 105.886 235.299 105.848C235.66 105.829 236.001 105.791 236.342 105.772C236.703 105.753 237.044 105.753 237.404 105.753C237.765 105.772 238.106 105.772 238.466 105.772C238.827 105.791 239.168 105.81 239.528 105.848C240.23 105.943 240.874 106.019 241.481 106.171C242.088 106.304 242.619 106.494 243.112 106.722C244.06 107.139 244.762 107.728 245.122 108.449C244.8 108.639 244.477 108.829 244.117 109C243.757 109.171 243.397 109.323 243.036 109.456C242.676 109.589 242.297 109.74 241.917 109.835C241.538 109.93 241.14 110.025 240.761 110.101C240.363 110.177 239.983 110.253 239.585 110.291C239.187 110.329 238.789 110.348 238.409 110.348C238.011 110.348 237.632 110.348 237.253 110.329C236.873 110.291 236.494 110.234 236.134 110.177C234.674 109.93 233.536 109.361 232.74 108.734C232 108.146 231.545 107.424 231.374 106.703C231.336 106.722 231.279 106.722 231.241 106.741C230.692 106.873 230.161 106.987 229.649 107.12C228.625 107.31 227.676 107.5 226.823 107.595C226.387 107.652 225.989 107.709 225.61 107.747C225.23 107.785 224.87 107.804 224.529 107.842C224.187 107.861 223.884 107.899 223.599 107.918C223.315 107.937 223.05 107.937 222.822 107.937C221.893 107.956 221.4 107.975 221.4 107.975V106.797C221.4 106.797 221.874 106.778 222.784 106.76C223.012 106.76 223.258 106.76 223.543 106.741C223.827 106.722 224.13 106.703 224.453 106.684C224.775 106.665 225.135 106.627 225.515 106.608C225.894 106.57 226.292 106.513 226.709 106.456C227.544 106.38 228.473 106.19 229.459 106.019C229.952 105.905 230.464 105.791 231.014 105.677C231.052 105.658 231.109 105.658 231.147 105.639C230.995 104.918 231.052 104.139 231.298 103.266C231.583 102.298 232.114 101.329 232.815 100.304C234.257 98.2914 236.058 96.6775 237.878 95.6902C238.315 96.3737 238.542 97.2281 238.504 98.2154C238.485 98.7091 238.39 99.2027 238.22 99.7534C238.049 100.285 237.822 100.855 237.48 101.405C237.31 101.671 237.12 101.956 236.93 102.222C236.722 102.487 236.513 102.753 236.286 102.981C236.058 103.209 235.811 103.456 235.565 103.665C235.318 103.892 235.053 104.101 234.769 104.291C234.484 104.481 234.2 104.652 233.915 104.823C233.877 104.842 233.82 104.88 233.782 104.899C235.736 104.272 237.822 103.437 239.983 102.317C240.135 102.241 240.306 102.146 240.476 102.07C240.628 101.994 240.78 101.899 240.931 101.804C240.609 101.196 240.457 100.437 240.495 99.6015C240.514 99.1268 240.59 98.6521 240.704 98.1395C240.818 97.6268 240.969 97.0952 241.178 96.5446C242.012 94.3611 243.302 92.4434 244.762 91.0954C245.312 91.608 245.71 92.3485 245.919 93.2409C246.013 93.6966 246.051 94.1902 246.013 94.7029C245.975 95.2345 245.881 95.8041 245.71 96.3927C245.52 96.9623 245.274 97.5509 244.989 98.1015C244.686 98.6521 244.307 99.1648 243.909 99.6584C243.643 99.9812 243.359 100.266 243.055 100.532C243.34 100.361 243.605 100.171 243.89 100C245.179 99.1078 246.487 98.1585 247.72 97.0572C248.137 96.7155 248.535 96.3357 248.934 95.956C248.004 94.9307 247.701 93.1649 247.967 91.0764C248.232 88.8739 249.028 86.8233 250.09 85.2664C250.697 85.6271 251.228 86.1968 251.607 86.9942C251.797 87.3929 251.93 87.8296 252.006 88.3233C252.081 88.8169 252.138 89.3676 252.1 89.9372C252.025 91.4941 251.418 93.089 250.527 94.3991C250.811 94.0953 251.114 93.8105 251.38 93.4877C251.664 93.1649 251.949 92.8232 252.252 92.5004C252.537 92.1586 252.802 91.8169 253.086 91.4561C253.655 90.7726 254.148 90.0131 254.698 89.2916C254.793 89.1587 254.888 89.0068 254.983 88.8549C254.471 88.5131 254.035 87.9625 253.712 87.279C253.542 86.8993 253.39 86.4816 253.295 86.0449C253.181 85.5892 253.086 85.0955 253.03 84.5829C252.821 82.5133 253.143 80.4437 253.788 78.7729C254.433 78.9817 255.021 79.3995 255.514 80.045C255.76 80.3678 255.988 80.7475 256.158 81.1842C256.348 81.6209 256.462 82.0956 256.557 82.6462C256.746 83.7285 256.67 84.8487 256.424 85.9499C256.31 86.3676 256.177 86.7664 256.026 87.1651L256.139 86.9562C256.367 86.5575 256.614 86.1588 256.822 85.7601C257.031 85.3423 257.258 84.9246 257.467 84.5259L257.638 84.2221L257.789 83.8993L258.074 83.2538C258.263 82.8171 258.472 82.3994 258.643 81.9627C258.756 81.6589 258.87 81.3741 259.003 81.0703C258.453 80.8614 257.96 80.4627 257.524 79.8741C257.05 79.2476 256.651 78.4501 256.348 77.5198C255.741 75.6401 255.609 73.6654 255.912 71.9756C256.538 72.0326 257.182 72.3174 257.751 72.811C258.036 73.0578 258.32 73.3616 258.567 73.7414C258.813 74.1021 259.06 74.5388 259.23 75.0135C259.78 76.3616 259.875 77.9375 259.61 79.3995C259.629 79.3615 259.629 79.3235 259.648 79.2855C260.235 77.4818 260.747 75.6021 261.07 73.7034L261.184 73.0958C260.046 72.9249 258.889 71.8997 258.036 70.3427C257.562 69.5263 257.258 68.6719 256.993 67.7985C256.86 67.3618 256.803 66.9441 256.727 66.5074C256.651 66.0897 256.614 65.672 256.614 65.2543C257.201 65.1973 257.827 65.3492 258.453 65.7099C259.079 66.0707 259.704 66.6593 260.197 67.4757C260.444 67.8744 260.672 68.3301 260.861 68.7858C261.032 69.2415 261.165 69.7352 261.24 70.2098C261.278 70.4567 261.335 70.7035 261.354 70.9503C261.373 71.1402 261.373 71.3301 261.373 71.5199L261.468 70.8364C261.544 69.8681 261.658 68.8997 261.658 67.9314C261.696 67.077 261.696 66.2036 261.658 65.3492C261.127 65.3682 260.577 65.2163 260.008 64.8935C259.42 64.5517 258.794 64.0201 258.244 63.3556C257.979 63.0138 257.694 62.672 257.467 62.2923C257.22 61.9316 257.031 61.5518 256.841 61.1721C256.443 60.4126 256.215 59.6342 256.045 58.8747C256.576 58.7228 257.201 58.7608 257.846 58.9886C258.168 59.1025 258.491 59.2734 258.813 59.5012C259.136 59.7291 259.458 59.9949 259.761 60.3367C259.913 60.5075 260.065 60.6784 260.216 60.8683C260.349 61.0582 260.482 61.248 260.596 61.4379C260.842 61.8366 261.051 62.2543 261.221 62.691C261.373 63.1087 261.487 63.5265 261.582 63.9632C261.449 61.9885 261.184 60.0329 260.766 58.0962C260.273 58.2101 259.723 58.1532 259.136 57.9443C258.529 57.7165 257.903 57.3367 257.258 56.8051C256.936 56.5393 256.651 56.2545 256.367 55.9507C256.083 55.6469 255.817 55.3431 255.59 55.0014C255.153 54.3368 254.736 53.6723 254.49 52.9888C254.964 52.7609 255.533 52.685 256.158 52.7989C256.481 52.8558 256.803 52.9508 257.144 53.1027C257.486 53.2546 257.827 53.4634 258.168 53.7103C258.832 54.2229 259.458 54.9064 259.894 55.6659C260.122 56.0456 260.33 56.4254 260.482 56.8241C260.444 56.6912 260.425 56.5583 260.387 56.4064C259.951 54.7166 259.382 53.0647 258.756 51.4698C258.32 51.6597 257.789 51.6976 257.22 51.6027C256.614 51.5078 255.95 51.242 255.286 50.8432C254.964 50.6344 254.622 50.4255 254.319 50.1787C254.016 49.9509 253.731 49.685 253.466 49.4192C253.2 49.1534 252.935 48.8876 252.707 48.5838C252.48 48.299 252.29 47.9952 252.1 47.7104C252.499 47.4256 253.03 47.2737 253.636 47.2927C254.224 47.3117 254.907 47.4826 255.627 47.8623C255.988 48.0522 256.31 48.28 256.632 48.5458C256.955 48.8116 257.258 49.0965 257.524 49.4002C257.789 49.723 258.017 50.0458 258.244 50.4065C258.282 50.4635 258.32 50.5394 258.358 50.5964C258.225 50.3116 258.112 50.0268 257.979 49.742C257.884 49.5331 257.789 49.3053 257.694 49.1154L257.372 48.4889C257.163 48.0712 256.974 47.6535 256.727 47.2547C256.5 46.856 256.272 46.4573 256.045 46.0586C255.969 45.9446 255.893 45.8117 255.817 45.6978C255.059 46.1915 253.826 46.1725 252.499 45.6408C251.797 45.375 251.171 44.9953 250.583 44.5776C250.28 44.3687 250.015 44.1409 249.768 43.913C249.635 43.7991 249.521 43.6662 249.408 43.5523C249.294 43.4384 249.18 43.3055 249.066 43.1726C249.408 42.8498 249.863 42.6409 250.432 42.565C251.001 42.489 251.645 42.565 252.366 42.8118C253.105 43.0396 253.75 43.4763 254.357 43.97C254.66 44.2168 254.926 44.5016 255.172 44.7864C255.248 44.8814 255.324 44.9763 255.4 45.0712C254.641 43.8751 253.845 42.7169 252.992 41.6536C252.859 41.4827 252.726 41.3118 252.593 41.141C252.499 41.0081 252.385 40.8941 252.271 40.7612C251.626 41.3498 250.489 41.5017 249.161 41.1789C248.82 41.103 248.479 41.0081 248.156 40.8751C247.834 40.7422 247.53 40.5903 247.227 40.4384C246.924 40.2866 246.639 40.1157 246.374 39.9068C246.241 39.8119 246.108 39.7169 245.994 39.603C245.862 39.5081 245.748 39.4132 245.634 39.2992C245.9 38.9575 246.317 38.6917 246.829 38.5588C247.341 38.4069 247.967 38.4069 248.668 38.5398C249.882 38.7676 251.057 39.4511 251.911 40.3245C251.721 40.0967 251.513 39.8688 251.323 39.641C251.038 39.3182 250.735 39.0144 250.451 38.7106C250.166 38.4069 249.882 38.1031 249.559 37.7993C249.142 37.3816 248.725 37.0018 248.289 36.6221C247.777 37.2487 246.715 37.5524 245.445 37.4195C244.781 37.3626 244.136 37.2107 243.548 36.9828C242.941 36.774 242.392 36.4892 241.917 36.1284C242.335 35.4259 243.283 34.9702 244.648 35.0462C244.989 35.0652 245.312 35.1221 245.653 35.1981C245.975 35.293 246.317 35.3879 246.639 35.5398C246.962 35.6727 247.246 35.8436 247.53 36.0335C247.758 36.1854 247.967 36.3563 248.175 36.5272C246.203 34.7614 244.174 33.2424 242.145 32.0273C239.642 30.5083 237.196 29.3881 234.958 28.5907C232.721 27.7552 230.692 27.2806 229.023 26.9388C228.53 26.8439 228.056 26.7679 227.62 26.692C227.24 26.9008 226.766 27.0717 226.235 27.1666C226.008 27.3185 225.723 27.3565 225.42 27.3565Z" fill="white"/>
<path d="M57.2753 26.7865C57.7683 26.5397 58.2424 26.2549 58.6406 25.8751C58.8492 25.6853 59.0199 25.5144 59.1716 25.3245C59.3233 25.1346 59.4371 24.9637 59.5319 24.7929C59.7215 24.4321 59.7784 24.0904 59.7215 23.7676C59.456 23.8056 59.1716 23.8435 58.9061 23.9195C58.6406 23.9954 58.3562 24.1093 58.1097 24.2233C57.8442 24.3372 57.5977 24.4701 57.3512 24.622C57.1046 24.7739 56.8771 24.9448 56.6875 25.1346C55.8721 25.9131 55.6066 26.7105 55.7962 27.3181C56.2893 27.2422 56.8012 27.0523 57.2753 26.7865Z" fill="white"/>
<path d="M58.2812 29.4068C58.5277 29.4638 58.7932 29.5208 59.0397 29.5397C59.2863 29.5587 59.5517 29.5777 59.7982 29.5587C60.0448 29.5587 60.2913 29.5397 60.5188 29.5018C60.4999 29.179 60.3482 28.8562 60.0827 28.5524C59.9499 28.4005 59.7982 28.2486 59.6086 28.1157C59.419 27.9828 59.2104 27.8689 58.9639 27.774C58.4898 27.5651 57.9399 27.4512 57.4089 27.3942C56.878 27.3752 56.3281 27.4322 55.854 27.5461C55.9678 28.1727 56.5935 28.7613 57.5417 29.141C57.7882 29.2739 58.0347 29.3499 58.2812 29.4068Z" fill="white"/>
<path d="M54.3359 26.804C55.1133 25.9306 55.4547 25.0952 55.265 24.4307C54.6962 24.5446 54.1273 24.7914 53.5963 25.0952C53.3308 25.2471 53.0654 25.418 52.8378 25.6078C52.6103 25.7977 52.3827 26.0256 52.1931 26.2344C51.4156 27.1458 51.226 28.0192 51.4915 28.6457C52.4965 28.323 53.5394 27.6394 54.3359 26.804Z" fill="white"/>
<path d="M54.3539 30.5453C54.6194 30.5833 54.9038 30.6023 55.1693 30.6023C55.7003 30.6023 56.2312 30.5264 56.7053 30.4124C56.5726 29.7479 55.9468 29.0834 54.8849 28.7606C53.804 28.4188 52.5714 28.5138 51.5664 28.8935C51.756 29.539 52.4956 30.0897 53.5385 30.3935C53.823 30.4694 54.0884 30.5264 54.3539 30.5453Z" fill="white"/>
<path d="M47.8496 30.1493C48.0961 29.9784 48.3616 29.8075 48.5892 29.6177C49.0632 29.2189 49.4994 28.7443 49.8786 28.2696C50.6182 27.2823 50.8647 26.314 50.5803 25.6494C49.9924 25.8583 49.4235 26.181 48.8926 26.5608C48.3616 26.9405 47.9065 27.4342 47.5462 27.9468C47.1859 28.4595 46.9963 28.9721 46.9205 29.4278C46.8636 29.8835 46.9205 30.2822 47.1101 30.586C47.3376 30.4531 47.6031 30.3202 47.8496 30.1493Z" fill="white"/>
<path d="M51.2257 32.1986C51.7946 32.1416 52.3445 32.0087 52.8186 31.8188C52.61 31.1163 51.8894 30.5467 50.7137 30.2999C50.1259 30.167 49.5191 30.205 48.9123 30.2999C48.6089 30.3569 48.3055 30.4138 48.021 30.5087C47.7366 30.6037 47.4711 30.7366 47.2246 30.8695C47.3763 31.1923 47.6608 31.4771 48.04 31.7049C48.4193 31.9328 48.9123 32.0847 49.5001 32.1796C50.069 32.2555 50.6379 32.2366 51.2257 32.1986Z" fill="white"/>
<path d="M44.1531 31.9488C44.6082 31.4741 45.0254 30.9425 45.3477 30.3539C45.4236 30.202 45.4994 30.0691 45.5563 29.9172C45.6132 29.7843 45.6891 29.6514 45.727 29.5185C45.8218 29.2527 45.8977 29.0058 45.9356 28.759C46.0114 28.2653 45.9546 27.8476 45.746 27.5059C45.1581 27.7907 44.5513 28.1704 44.0583 28.683C43.5463 29.1767 43.1101 29.7083 42.8067 30.3349C42.1999 31.5501 42.2189 32.5564 42.693 33.1829C43.205 32.8412 43.717 32.4424 44.1531 31.9488Z" fill="white"/>
<path d="M47.3369 32.5403C47.2042 32.5023 47.0715 32.4643 46.9198 32.4454C46.768 32.4264 46.6353 32.4074 46.4646 32.3884C45.8389 32.3504 45.1752 32.4264 44.5494 32.6162C43.9426 32.8061 43.3358 33.0909 42.8428 33.4327C43.241 34.0782 44.1891 34.4959 45.4217 34.5339C46.0285 34.5339 46.6732 34.4959 47.2421 34.344C47.83 34.1922 48.3988 34.0023 48.8729 33.7365C48.7212 33.3947 48.4368 33.0719 48.0196 32.8441C47.83 32.7302 47.6024 32.6162 47.3369 32.5403Z" fill="white"/>
<path d="M39.1279 35.8248C39.3554 35.578 39.564 35.2932 39.7726 35.0084C39.9812 34.7236 40.1708 34.4388 40.3415 34.116C40.5121 33.8122 40.6638 33.4705 40.7966 33.1667C41.3275 31.8756 41.3465 30.7364 40.8535 30.0908C40.2656 30.4895 39.7157 30.9832 39.2227 31.5528C38.7486 32.1414 38.3694 32.8059 38.1229 33.4705C37.6488 34.8375 37.8194 35.9198 38.3883 36.5084C38.6728 36.3185 38.9003 36.0717 39.1279 35.8248Z" fill="white"/>
<path d="M34.3866 40.6669C35.2968 39.6417 36.0553 38.2366 36.4346 36.7936C36.6242 36.0721 36.6811 35.4076 36.6242 34.857C36.5673 34.3063 36.3777 33.8507 36.0743 33.5469C35.9226 33.6608 35.7899 33.7937 35.6571 33.9266C35.5244 34.0595 35.3916 34.2114 35.2589 34.3633C35.0124 34.6671 34.7659 34.9899 34.5573 35.3316C34.3297 35.6544 34.1591 36.0342 34.0074 36.3949C33.8557 36.7557 33.7419 37.1354 33.6471 37.5151C33.3437 39.0341 33.704 40.1543 34.3866 40.6669Z" fill="white"/>
<path d="M30.7836 45.6416C30.9921 45.3378 31.1818 45.015 31.3335 44.6543C31.5041 44.3125 31.6369 43.9328 31.7886 43.572C32.073 42.8315 32.2437 42.0151 32.3385 41.2366C32.4333 40.4582 32.3764 39.7367 32.2437 39.1671C32.092 38.5975 31.8455 38.1418 31.4662 37.876C31.3335 38.0279 31.2007 38.1798 31.068 38.3506C30.9353 38.5215 30.8404 38.6924 30.7267 38.8823C30.4991 39.243 30.3095 39.6228 30.1199 40.0025C29.7785 40.781 29.5699 41.6354 29.5131 42.4518C29.4372 44.1037 29.9682 45.2049 30.7836 45.6416Z" fill="white"/>
<path d="M26.6133 50.4444C26.9546 50.976 27.3718 51.3368 27.8458 51.4887C27.9217 51.3178 27.9786 51.1279 28.0544 50.938C28.1303 50.7482 28.1872 50.5583 28.263 50.3684C28.3768 49.9697 28.4716 49.571 28.5474 49.1533C28.6233 48.7356 28.6991 48.3179 28.7181 47.8812C28.756 47.4634 28.7371 47.0078 28.7371 46.5901C28.7181 45.7546 28.5664 45.0141 28.3009 44.4256C28.0544 43.837 27.7131 43.4192 27.2769 43.1914C27.0304 43.5522 26.8408 43.9509 26.6512 44.3686C26.4805 44.7863 26.3098 45.223 26.1961 45.6597C26.0823 46.1154 26.0064 46.5711 25.9685 47.0078C25.9306 47.4634 25.9116 47.9001 25.9685 48.3368C26.0633 49.2102 26.2909 49.9128 26.6133 50.4444Z" fill="white"/>
<path d="M61.5801 27.3565C61.8835 27.3755 62.1869 27.3755 62.5093 27.3565C62.8316 27.3375 63.135 27.2806 63.4384 27.2236C63.7229 27.1666 64.0073 27.0907 64.2728 27.0147C64.8037 26.8439 65.2589 26.597 65.6002 26.3122C65.2589 26.0464 64.7848 25.8186 64.2159 25.6857C63.9315 25.6097 63.647 25.5528 63.3247 25.5338C63.0213 25.5148 62.6799 25.5148 62.3576 25.5338C62.0162 25.5528 61.6939 25.6097 61.3905 25.6667C61.0871 25.7426 60.8026 25.8376 60.5371 25.9515C60.0252 26.1793 59.589 26.4451 59.2856 26.7679C58.8495 26.8439 58.3944 26.9198 57.9013 26.9958C56.2326 27.3185 54.1846 27.7742 51.947 28.5907C49.6905 29.3881 47.2253 30.4893 44.7033 31.9703C42.1623 33.4703 39.6023 35.3879 37.1751 37.7233C36.8717 38.0081 36.5683 38.3119 36.2839 38.6157C35.9994 38.9195 35.696 39.2233 35.3926 39.5461C35.1082 39.8688 34.8237 40.1916 34.5393 40.5334C34.4066 40.7043 34.2549 40.8562 34.1032 41.027C33.9704 41.1979 33.8377 41.3688 33.686 41.5397C32.5672 42.9067 31.5432 44.4257 30.5761 45.9826C30.3485 46.3813 30.121 46.7801 29.8745 47.1788C29.6469 47.5775 29.4383 47.9952 29.2297 48.4129L28.9074 49.0395C28.7936 49.2483 28.7178 49.4572 28.604 49.685C28.4144 50.1217 28.2058 50.5394 28.0161 50.9761C27.2956 52.7229 26.6319 54.5457 26.1388 56.4064C26.0251 56.8431 25.9113 57.2798 25.8165 57.7165C25.8734 57.4127 25.9302 57.1279 25.9682 56.8051C26.0251 56.3684 26.063 55.9317 26.063 55.476C26.063 54.5647 26.0251 53.6533 25.8165 52.7609C25.7217 52.3052 25.6079 51.9065 25.4751 51.5458C25.3424 51.185 25.1907 50.8432 25.0011 50.5584C24.6408 49.9888 24.2046 49.5901 23.7116 49.4192C23.3513 50.2736 23.0858 51.223 23.01 52.2103C22.9721 52.704 22.9531 53.1976 22.991 53.6723C23.0289 54.1659 23.1048 54.6406 23.2375 55.0773C23.4651 55.9697 23.8443 56.6912 24.2994 57.1848C24.7356 57.6785 25.2476 57.9633 25.7596 58.0582C25.2665 60.2417 24.9631 62.4822 24.8304 64.7226C24.8304 64.4948 24.8304 64.2669 24.8304 64.0391C24.8114 63.5834 24.7546 63.1087 24.6597 62.6341C24.6029 62.1594 24.508 61.6847 24.3753 61.2101C24.3184 60.9822 24.2426 60.7354 24.1667 60.5075C24.0909 60.2797 24.015 60.0519 23.9202 59.824C23.7495 59.3683 23.5409 58.9696 23.3324 58.6089C23.1238 58.2481 22.8772 57.9253 22.6497 57.6595C22.1756 57.1279 21.6447 56.7861 21.0948 56.7102C20.8293 57.6595 20.7914 58.7418 20.8482 59.786C20.8862 60.3177 20.981 60.8303 21.1137 61.324C21.2465 61.8176 21.3982 62.3113 21.6067 62.767C22.0429 63.6783 22.5549 64.3429 23.1048 64.7796C23.6547 65.2163 24.2426 65.4062 24.7925 65.4062C24.7546 66.2795 24.7546 67.1529 24.7735 68.0263C24.7735 69.0137 24.8683 70.001 24.9442 70.9693L25.0959 72.2224C25.0769 72.0895 25.039 71.9756 25.02 71.8427C24.9631 71.5959 24.8873 71.368 24.8114 71.1212C24.7356 70.8744 24.6597 70.6465 24.5839 70.3997C24.4132 69.925 24.2046 69.4314 23.9771 68.9757C23.7685 68.501 23.522 68.0453 23.2375 67.6276C22.6687 66.7542 22.1187 66.0707 21.5119 65.596C20.9051 65.1213 20.2794 64.8745 19.6915 64.8935C19.6726 65.4251 19.6726 65.9758 19.7294 66.5264C19.7674 67.077 19.9001 67.6276 20.0518 68.1782C20.3173 69.2605 20.8293 70.2858 21.4171 71.1592C22.6687 72.868 24.0909 73.5135 25.2476 73.2857L25.3614 73.8933C25.6648 75.8299 26.1578 77.7286 26.7456 79.5893C26.8025 79.7792 26.8594 79.9501 26.9353 80.1399C26.9163 80.083 26.8973 80.026 26.8594 79.9691C26.6319 79.4944 26.3474 79.0197 26.0819 78.564C25.7975 78.0894 25.4941 77.6337 25.1528 77.197C24.8304 76.7603 24.4891 76.3236 24.0909 75.9249C23.7116 75.5261 23.3324 75.1844 22.9721 74.8806C22.5928 74.5768 22.2325 74.349 21.8722 74.1591C21.1327 73.7983 20.45 73.6464 19.8243 73.7794C20.1277 76.0388 21.2844 78.4501 22.9341 80.007C23.7685 80.7855 24.6218 81.2602 25.3803 81.469C26.1199 81.6779 26.8025 81.6399 27.3714 81.4121C27.4852 81.7159 27.599 82.0196 27.7317 82.3234C27.9024 82.7791 28.1109 83.2158 28.3006 83.6525L28.585 84.2981L28.7367 84.6208L28.9074 84.9436C29.116 85.3613 29.3435 85.798 29.5521 86.2157C29.7797 86.6334 30.0072 87.0322 30.2348 87.4499L30.5382 87.9815C29.4952 86.6524 28.2058 85.3993 26.7836 84.412C26.3095 84.0702 25.8165 83.8044 25.3803 83.5766C24.9252 83.3487 24.4891 83.1778 24.0719 83.0639C23.2375 82.8361 22.479 82.8361 21.8722 83.1209C22.6687 85.4373 24.4322 87.6967 26.5181 88.9309C27.049 89.2346 27.5421 89.4815 28.0161 89.6334C28.5092 89.7853 28.9643 89.8802 29.4004 89.8992C30.2158 89.9372 30.8985 89.7473 31.4294 89.3865C31.5242 89.5384 31.619 89.6903 31.7139 89.8232C32.2448 90.5827 32.7568 91.3422 33.3257 92.0447C33.6101 92.4054 33.8756 92.7662 34.16 93.108C34.4445 93.4497 34.7479 93.7915 35.0323 94.1333C35.3168 94.475 35.6391 94.7788 35.9236 95.1206C35.9994 95.1965 36.0753 95.2915 36.1511 95.3674C34.7858 94.2851 33.174 93.3358 31.5053 92.6333C30.9174 92.4054 30.3865 92.2156 29.8555 92.0827C29.3246 91.9498 28.8315 91.8738 28.3575 91.8548C27.4473 91.7979 26.6508 91.9877 26.0819 92.4054C26.2526 92.6903 26.4422 92.9561 26.6319 93.2219C26.8404 93.4877 27.049 93.7535 27.2766 94.0003C27.5041 94.2472 27.7317 94.513 27.9782 94.7408C28.2247 94.9877 28.4902 95.1965 28.7557 95.4244C29.8176 96.2978 31.0502 96.9623 32.2638 97.38C34.672 98.1395 36.5304 97.7028 37.4596 96.6775C37.8578 97.0572 38.275 97.4559 38.6921 97.7977C39.9626 98.9369 41.29 99.9242 42.5984 100.836C42.9398 101.044 43.2621 101.272 43.6035 101.481C43.6604 101.519 43.7172 101.557 43.7931 101.595C42.1244 100.855 40.266 100.285 38.3887 100C37.744 99.9053 37.1182 99.8293 36.5493 99.8293C35.9615 99.8293 35.4305 99.8673 34.9565 99.9432C33.9894 100.114 33.2119 100.494 32.7378 101.063C33.2309 101.557 33.7808 102.032 34.3876 102.449C34.9944 102.867 35.6202 103.266 36.3028 103.57C37.6302 104.215 39.0714 104.614 40.4557 104.709C41.1573 104.747 41.783 104.728 42.3519 104.652C42.9208 104.576 43.4328 104.405 43.8879 104.215C44.7223 103.836 45.2911 103.304 45.6325 102.696C45.7842 102.791 45.9359 102.886 46.0876 102.962C46.2582 103.057 46.4289 103.133 46.5806 103.228C48.932 104.462 51.2075 105.392 53.3313 106.057C53.1417 106.019 52.9331 106 52.7435 105.962C52.4021 105.924 52.0608 105.886 51.7005 105.848C51.3402 105.829 50.9989 105.791 50.6576 105.772C50.2973 105.753 49.956 105.753 49.5957 105.753C49.2354 105.772 48.8941 105.772 48.5338 105.772C48.1735 105.791 47.8321 105.81 47.4719 105.848C46.7702 105.943 46.1255 106.019 45.5187 106.171C44.9119 106.304 44.3809 106.494 43.8879 106.722C42.9398 107.139 42.2381 107.728 41.8779 108.449C42.2002 108.639 42.5226 108.829 42.8829 109C43.2432 109.171 43.6035 109.323 43.9638 109.456C44.324 109.589 44.7033 109.74 45.0826 109.835C45.4618 109.93 45.86 110.025 46.2393 110.101C46.6375 110.177 47.0167 110.253 47.415 110.291C47.8132 110.329 48.2114 110.348 48.5907 110.348C48.9889 110.348 49.3681 110.348 49.7474 110.329C50.1266 110.291 50.5059 110.234 50.8662 110.177C52.3263 109.93 53.4641 109.361 54.2605 108.734C55 108.146 55.4551 107.424 55.6258 106.703C55.6637 106.722 55.7206 106.722 55.7585 106.741C56.3085 106.873 56.8394 106.987 57.3514 107.12C58.3754 107.31 59.3235 107.5 60.1769 107.595C60.613 107.652 61.0112 107.709 61.3905 107.747C61.7697 107.785 62.13 107.804 62.4713 107.842C62.8127 107.861 63.1161 107.899 63.4005 107.918C63.6849 107.937 63.9504 107.937 64.178 107.937C65.1071 107.956 65.6002 107.975 65.6002 107.975V106.797C65.6002 106.797 65.1261 106.778 64.2159 106.76C63.9883 106.76 63.7418 106.76 63.4574 106.741C63.173 106.722 62.8696 106.703 62.5472 106.684C62.2248 106.665 61.8645 106.627 61.4853 106.608C61.106 106.57 60.7078 106.513 60.2906 106.456C59.4563 106.38 58.5271 106.19 57.541 106.019C57.048 105.905 56.536 105.791 55.9861 105.677C55.9482 105.658 55.8913 105.658 55.8534 105.639C56.0051 104.918 55.9482 104.139 55.7017 103.266C55.4172 102.298 54.8863 101.329 54.1846 100.304C52.7435 98.2914 50.942 96.6775 49.1216 95.6902C48.6855 96.3737 48.4579 97.2281 48.4958 98.2154C48.5148 98.7091 48.6096 99.2027 48.7803 99.7534C48.9509 100.285 49.1785 100.855 49.5198 101.405C49.6905 101.671 49.8801 101.956 50.0697 102.222C50.2783 102.487 50.4869 102.753 50.7145 102.981C50.942 103.209 51.1885 103.456 51.4351 103.665C51.6816 103.892 51.947 104.101 52.2315 104.291C52.5159 104.481 52.8004 104.652 53.0848 104.823C53.1227 104.842 53.1796 104.88 53.2175 104.899C51.2644 104.272 49.1785 103.437 47.0167 102.317C46.865 102.241 46.6944 102.146 46.5237 102.07C46.372 101.994 46.2203 101.899 46.0686 101.804C46.391 101.196 46.5427 100.437 46.5048 99.6015C46.4858 99.1268 46.4099 98.6521 46.2962 98.1395C46.1824 97.6268 46.0307 97.0952 45.8221 96.5446C44.9877 94.3611 43.6983 92.4434 42.2381 91.0954C41.6882 91.608 41.29 92.3485 41.0814 93.2409C40.9866 93.6966 40.9487 94.1902 40.9866 94.7029C41.0245 95.2345 41.1194 95.8041 41.29 96.3927C41.4796 96.9623 41.7262 97.5509 42.0106 98.1015C42.314 98.6521 42.6933 99.1648 43.0915 99.6584C43.3569 99.9812 43.6414 100.266 43.9448 100.532C43.6604 100.361 43.3949 100.171 43.1104 100C41.821 99.1078 40.5125 98.1585 39.28 97.0572C38.8628 96.7155 38.4646 96.3357 38.0664 95.956C38.9955 94.9307 39.2989 93.1649 39.0335 91.0764C38.768 88.8739 37.9715 86.8233 36.9096 85.2664C36.3028 85.6271 35.7719 86.1968 35.3926 86.9942C35.203 87.3929 35.0703 87.8296 34.9944 88.3233C34.9186 88.8169 34.8617 89.3676 34.8996 89.9372C34.9754 91.4941 35.5822 93.089 36.4735 94.3991C36.1891 94.0953 35.8857 93.8105 35.6202 93.4877C35.3357 93.1649 35.0513 92.8232 34.7479 92.5004C34.4634 92.1586 34.198 91.8169 33.9135 91.4561C33.3447 90.7726 32.8516 90.0131 32.3017 89.2916C32.2069 89.1587 32.1121 89.0068 32.0173 88.8549C32.5293 88.5131 32.9654 87.9625 33.2878 87.279C33.4584 86.8993 33.6101 86.4816 33.7049 86.0449C33.8187 85.5892 33.9135 85.0955 33.9704 84.5829C34.179 82.5133 33.8566 80.4437 33.2119 78.7729C32.5672 78.9817 31.9793 79.3995 31.4863 80.045C31.2398 80.3678 31.0122 80.7475 30.8416 81.1842C30.6519 81.6209 30.5382 82.0956 30.4434 82.6462C30.2537 83.7285 30.3296 84.8487 30.5761 85.9499C30.6899 86.3676 30.8226 86.7664 30.9743 87.1651L30.8605 86.9562C30.633 86.5575 30.3865 86.1588 30.1779 85.7601C29.9693 85.3423 29.7417 84.9246 29.5332 84.5259L29.3625 84.2221L29.2108 83.8993L28.9263 83.2538C28.7367 82.8171 28.5281 82.3994 28.3575 81.9627C28.2437 81.6589 28.1299 81.3741 27.9972 81.0703C28.5471 80.8614 29.0401 80.4627 29.4763 79.8741C29.9503 79.2476 30.3485 78.4501 30.6519 77.5198C31.2588 75.6401 31.3915 73.6654 31.0881 71.9756C30.4623 72.0326 29.8176 72.3174 29.2487 72.811C28.9643 73.0578 28.6798 73.3616 28.4333 73.7414C28.1868 74.1021 27.9403 74.5388 27.7696 75.0135C27.2197 76.3616 27.1249 77.9375 27.3904 79.3995C27.3714 79.3615 27.3714 79.3235 27.3524 79.2855C26.7646 77.4818 26.2526 75.6021 25.9302 73.7034L25.8165 73.0958C26.9542 72.9249 28.1109 71.8997 28.9643 70.3427C29.4383 69.5263 29.7417 68.6719 30.0072 67.7985C30.14 67.3618 30.1968 66.9441 30.2727 66.5074C30.3485 66.0897 30.3865 65.672 30.3865 65.2543C29.7986 65.1973 29.1729 65.3492 28.5471 65.7099C27.9213 66.0707 27.2956 66.6593 26.8025 67.4757C26.556 67.8744 26.3285 68.3301 26.1388 68.7858C25.9682 69.2415 25.8354 69.7352 25.7596 70.2098C25.7217 70.4567 25.6648 70.7035 25.6458 70.9503C25.6268 71.1402 25.6268 71.3301 25.6268 71.5199L25.532 70.8364C25.4562 69.8681 25.3424 68.8997 25.3424 67.9314C25.3045 67.077 25.3045 66.2036 25.3424 65.3492C25.8734 65.3682 26.4233 65.2163 26.9922 64.8935C27.58 64.5517 28.2058 64.0201 28.7557 63.3556C29.0212 63.0138 29.3056 62.672 29.5332 62.2923C29.7797 61.9316 29.9693 61.5518 30.1589 61.1721C30.5571 60.4126 30.7847 59.6342 30.9554 58.8747C30.4244 58.7228 29.7986 58.7608 29.1539 58.9886C28.8315 59.1025 28.5092 59.2734 28.1868 59.5012C27.8644 59.7291 27.5421 59.9949 27.2387 60.3367C27.087 60.5075 26.9353 60.6784 26.7836 60.8683C26.6508 61.0582 26.5181 61.248 26.4043 61.4379C26.1578 61.8366 25.9492 62.2543 25.7785 62.691C25.6268 63.1087 25.5131 63.5265 25.4182 63.9632C25.551 61.9885 25.8165 60.0329 26.2336 58.0962C26.7267 58.2101 27.2766 58.1532 27.8644 57.9443C28.4712 57.7165 29.097 57.3367 29.7417 56.8051C30.0641 56.5393 30.3485 56.2545 30.633 55.9507C30.9174 55.6469 31.1829 55.3431 31.4105 55.0014C31.8466 54.3368 32.2638 53.6723 32.5103 52.9888C32.0362 52.7609 31.4673 52.685 30.8416 52.7989C30.5192 52.8558 30.1968 52.9508 29.8555 53.1027C29.5142 53.2546 29.1729 53.4634 28.8315 53.7103C28.1678 54.2229 27.5421 54.9064 27.1059 55.6659C26.8784 56.0456 26.6698 56.4254 26.5181 56.8241C26.556 56.6912 26.575 56.5583 26.6129 56.4064C27.049 54.7166 27.6179 53.0647 28.2437 51.4698C28.6798 51.6597 29.2108 51.6976 29.7797 51.6027C30.3865 51.5078 31.0502 51.242 31.7139 50.8432C32.0362 50.6344 32.3776 50.4255 32.681 50.1787C32.9844 49.9509 33.2688 49.685 33.5343 49.4192C33.7998 49.1534 34.0652 48.8876 34.2928 48.5838C34.5203 48.299 34.71 47.9952 34.8996 47.7104C34.5014 47.4256 33.9704 47.2737 33.3636 47.2927C32.7758 47.3117 32.0931 47.4826 31.3725 47.8623C31.0122 48.0522 30.6899 48.28 30.3675 48.5458C30.0451 48.8116 29.7417 49.0965 29.4763 49.4002C29.2108 49.723 28.9832 50.0458 28.7557 50.4065C28.7178 50.4635 28.6798 50.5394 28.6419 50.5964C28.7746 50.3116 28.8884 50.0268 29.0212 49.742C29.116 49.5331 29.2108 49.3053 29.3056 49.1154L29.628 48.4889C29.8366 48.0712 30.0262 47.6535 30.2727 47.2547C30.5002 46.856 30.7278 46.4573 30.9554 46.0586C31.0312 45.9446 31.1071 45.8117 31.1829 45.6978C31.9414 46.1915 33.174 46.1725 34.5014 45.6408C35.203 45.375 35.8288 44.9953 36.4166 44.5776C36.72 44.3687 36.9855 44.1409 37.232 43.913C37.3647 43.7991 37.4785 43.6662 37.5923 43.5523C37.7061 43.4384 37.8198 43.3055 37.9336 43.1726C37.5923 42.8498 37.1372 42.6409 36.5683 42.565C35.9994 42.489 35.3547 42.565 34.6341 42.8118C33.8946 43.0396 33.2498 43.4763 32.643 43.97C32.3396 44.2168 32.0742 44.5016 31.8276 44.7864C31.7518 44.8814 31.6759 44.9763 31.6001 45.0712C32.3586 43.8751 33.155 42.7169 34.0083 41.6536C34.1411 41.4827 34.2738 41.3118 34.4066 41.141C34.5014 41.0081 34.6152 40.8941 34.7289 40.7612C35.3737 41.3498 36.5114 41.5017 37.8388 41.1789C38.1801 41.103 38.5215 41.0081 38.8438 40.8751C39.1662 40.7422 39.4696 40.5903 39.773 40.4384C40.0764 40.2866 40.3608 40.1157 40.6263 39.9068C40.7591 39.8119 40.8918 39.7169 41.0056 39.603C41.1383 39.5081 41.2521 39.4132 41.3659 39.2992C41.1004 38.9575 40.6832 38.6917 40.1712 38.5588C39.6592 38.4069 39.0335 38.4069 38.3318 38.5398C37.1182 38.7676 35.9425 39.4511 35.0892 40.3245C35.2788 40.0967 35.4874 39.8688 35.6771 39.641C35.9615 39.3182 36.2649 39.0144 36.5493 38.7106C36.8338 38.4069 37.1182 38.1031 37.4406 37.7993C37.8578 37.3816 38.275 37.0018 38.7111 36.6221C39.2231 37.2487 40.285 37.5524 41.5555 37.4195C42.2192 37.3626 42.8639 37.2107 43.4518 36.9828C44.0586 36.774 44.6085 36.4892 45.0826 36.1284C44.6654 35.4259 43.7172 34.9702 42.3519 35.0462C42.0106 35.0652 41.6882 35.1221 41.3469 35.1981C41.0245 35.293 40.6832 35.3879 40.3608 35.5398C40.0385 35.6727 39.754 35.8436 39.4696 36.0335C39.242 36.1854 39.0335 36.3563 38.8249 36.5272C40.797 34.7614 42.826 33.2424 44.855 32.0273C47.3581 30.5083 49.8043 29.3881 52.0419 28.5907C54.2795 27.7552 56.3085 27.2806 57.9772 26.9388C58.4702 26.8439 58.9443 26.7679 59.3804 26.692C59.7597 26.9008 60.2337 27.0717 60.7647 27.1666C60.9922 27.3185 61.2767 27.3565 61.5801 27.3565Z" fill="white"/>
<defs>
<linearGradient id="paint0_linear_114_438" x1="143.5" y1="135.812" x2="143.5" y2="0" gradientUnits="userSpaceOnUse">
<stop stop-color="#ABC2D3"/>
<stop offset="1" stop-color="#202C34" stop-opacity="0.4"/>
</linearGradient>
<linearGradient id="paint1_linear_114_438" x1="283.721" y1="66.2086" x2="3.28076" y2="66.2086" gradientUnits="userSpaceOnUse">
<stop stop-color="#7FBAE5"/>
<stop offset="1" stop-color="#4499D9"/>
</linearGradient>
</defs>
</svg>
